<svg width="20" height="17" viewBox="0 0 20 17" fill="none" xmlns="http://www.w3.org/2000/svg">
<g clip-path="url(#clip0_1_455)">
<path fill-rule="evenodd" clip-rule="evenodd" d="M12.6046 14.4462C12.1536 14.765 12.0465 15.3891 12.3654 15.84C12.6842 16.291 13.3083 16.3981 13.7592 16.0792L17.5692 13.3854C17.5742 13.382 17.5792 13.3784 17.5841 13.3749L18.7322 12.5631L17.5844 11.7515C17.5793 11.7478 17.5741 11.7442 17.5689 11.7406L13.7592 9.04698C13.3083 8.72814 12.6842 8.83523 12.3654 9.28619C12.0465 9.73714 12.1536 10.3612 12.6046 10.68L13.8536 11.5631L3.00001 11.5631C2.44772 11.5631 2.00001 12.0108 2.00001 12.5631C2.00001 13.1154 2.44772 13.5631 3.00001 13.5631L13.8536 13.5631L12.6046 14.4462Z" fill="#6DE0F6"/>
<path fill-rule="evenodd" clip-rule="evenodd" d="M7.39543 2.70979C7.84638 2.39094 7.95348 1.7669 7.63464 1.31595C7.3158 0.864996 6.69176 0.757898 6.2408 1.07674L2.43086 3.77052C2.42583 3.774 2.42084 3.77753 2.41588 3.7811L1.26777 4.59286L2.41563 5.40444C2.42075 5.40814 2.42591 5.41178 2.4311 5.41538L6.2408 8.10898C6.69176 8.42782 7.3158 8.32072 7.63464 7.86977C7.95348 7.41881 7.84638 6.79477 7.39543 6.47593L6.14646 5.59286L17 5.59286C17.5523 5.59286 18 5.14515 18 4.59286C18 4.04058 17.5523 3.59286 17 3.59286L6.14645 3.59286L7.39543 2.70979Z" fill="#6DE0F6"/>
</g>
<defs>
<clipPath id="clip0_1_455">
<rect width="20" height="16.7118" fill="white" transform="translate(20 16.9339) rotate(-180)"/>
</clipPath>
</defs>
</svg>
