<svg width="20" height="21" viewBox="0 0 20 21" fill="none" xmlns="http://www.w3.org/2000/svg">
<path fill-rule="evenodd" clip-rule="evenodd" d="M12.5359 18.2104C12.1143 18.5671 12.0617 19.1981 12.4185 19.6197C12.7752 20.0413 13.4062 20.0939 13.8278 19.7371L17.646 16.5064L18.5482 15.743L17.646 14.9796L13.8278 11.7488C13.4062 11.3921 12.7752 11.4447 12.4185 11.8663C12.0617 12.2879 12.1143 12.9189 12.5359 13.2756L14.2701 14.743L2.99999 14.743C2.44771 14.743 1.99999 15.1907 1.99999 15.743C1.99999 16.2953 2.44771 16.743 2.99999 16.743L14.2701 16.743L12.5359 18.2104Z" fill="black"/>
<path fill-rule="evenodd" clip-rule="evenodd" d="M7.46406 3.73716C7.88566 3.38041 7.93825 2.74944 7.5815 2.32783C7.22476 1.90622 6.59378 1.85364 6.17217 2.21039L2.35399 5.44116L1.45181 6.20454L2.35399 6.96793L6.17217 10.1987C6.59378 10.5554 7.22476 10.5029 7.5815 10.0813C7.93824 9.65965 7.88566 9.02867 7.46406 8.67192L5.72988 7.20455L17 7.20455C17.5523 7.20455 18 6.75683 18 6.20455C18 5.65226 17.5523 5.20455 17 5.20455L5.72987 5.20455L7.46406 3.73716Z" fill="black"/>
</svg>
