<svg width="30" height="30" viewBox="0 0 30 30" fill="none" xmlns="http://www.w3.org/2000/svg">
<path fill-rule="evenodd" clip-rule="evenodd" d="M6 9.00012C6 8.44784 6.44772 8.00012 7 8.00012H22.9999C23.5522 8.00012 23.9999 8.44784 23.9999 9.00012C23.9999 9.55241 23.5522 10.0001 22.9999 10.0001H7C6.44772 10.0001 6 9.55241 6 9.00012ZM7.00013 14.0162L23 14.0162C23.5523 14.0162 24 14.464 24 15.0162C24 15.5685 23.5523 16.0162 23 16.0162L7.00013 16.0162C6.44785 16.0162 6.00013 15.5685 6.00013 15.0162C6.00013 14.464 6.44785 14.0162 7.00013 14.0162ZM6 21.0001C6 20.4478 6.44772 20.0001 7 20.0001H22.9999C23.5522 20.0001 23.9999 20.4478 23.9999 21.0001C23.9999 21.5524 23.5522 22.0001 22.9999 22.0001H7C6.44772 22.0001 6 21.5524 6 21.0001Z" fill="#6DE0F6"/>
</svg>
