<svg width="43" height="44" viewBox="0 0 43 44" fill="none" xmlns="http://www.w3.org/2000/svg">
<path d="M12.1229 8.25887C11.9248 7.51979 11.4891 6.86623 10.883 6.39898C10.2769 5.93193 9.53398 5.67713 8.76876 5.67384L8.75967 5.67384C7.83998 5.67384 6.95796 6.03912 6.30764 6.68959C5.65733 7.33986 5.29199 8.22192 5.29199 9.14151L5.29199 9.15041C5.29534 9.91561 5.55022 10.6584 6.01735 11.2643C6.48448 11.8703 7.13795 12.306 7.87703 12.5039C9.92909 13.0704 11.7387 14.2946 13.0282 15.9883C14.3178 17.6821 15.0161 19.7521 15.0161 21.881C15.0161 24.0098 14.3178 26.0798 13.0282 27.7736C11.7387 29.4674 9.92909 30.6915 7.87703 31.258C7.13801 31.4561 6.48464 31.8918 6.01762 32.4979C5.55059 33.104 5.29582 33.8468 5.29257 34.6119L5.29257 34.621C5.29257 35.5406 5.65791 36.4227 6.30823 37.073C6.95854 37.7233 7.84056 38.0887 8.76025 38.0887L8.76934 38.0887C9.53446 38.0853 10.2773 37.8304 10.8833 37.3633C11.4892 36.8961 11.9248 36.2427 12.1229 35.5036C12.6894 33.4516 13.9134 31.642 15.6072 30.3524C17.301 29.0629 19.371 28.3645 21.4999 28.3645C23.6287 28.3645 25.6987 29.0629 27.3926 30.3524C29.0865 31.642 30.3104 33.4515 30.8769 35.5036C31.075 36.2426 31.5105 36.896 32.1165 37.3631C32.7225 37.8302 33.4652 38.0851 34.2302 38.0885L34.2393 38.0885C35.1591 38.0885 36.041 37.7231 36.6914 37.0728C37.3417 36.4225 37.707 35.5405 37.707 34.6208L37.707 34.6117C37.7037 33.8466 37.4487 33.1038 36.9816 32.4978C36.5144 31.8918 35.861 31.4562 35.1219 31.2582C33.0699 30.6916 31.2604 29.4676 29.9708 27.7738C28.6811 26.08 27.9829 24.01 27.9829 21.8812C27.9829 19.7523 28.6811 17.6823 29.9708 15.9884C31.2604 14.2948 33.0699 13.0706 35.1219 12.5041C35.861 12.3062 36.5146 11.8705 36.9818 11.2645C37.4489 10.6586 37.7039 9.91561 37.7072 9.15041L37.7072 9.14132C37.7072 8.22173 37.3417 7.33967 36.6914 6.68939C36.0411 6.03912 35.1591 5.67364 34.2395 5.67364L34.2302 5.67364C33.465 5.67693 32.7223 5.93193 32.1163 6.39898C31.5103 6.86623 31.0748 7.5196 30.8767 8.25868C30.3102 10.3107 29.0863 12.1203 27.3924 13.4098C25.6985 14.6995 23.6285 15.3978 21.4997 15.3978C19.3708 15.3978 17.3008 14.6995 15.607 13.4098C13.9132 12.1203 12.6892 10.3107 12.1227 8.25868L12.1229 8.25887Z" fill="#D4088C"/>
<path d="M2.05414 38.8438C2.16508 38.7323 2.2385 38.5889 2.2642 38.4337C2.28989 38.2785 2.26658 38.1191 2.19751 37.9778C1.57469 36.6881 1.36725 35.2371 1.60379 33.8246C1.84032 32.412 2.5092 31.1077 3.51817 30.0913C3.65935 29.9512 3.74077 29.7619 3.74532 29.563C3.74986 29.3642 3.67719 29.1713 3.54255 29.0249C3.47311 28.9521 3.38984 28.894 3.29761 28.8539C3.20538 28.8138 3.10607 28.7925 3.0055 28.7913C2.90493 28.7902 2.80516 28.8091 2.71202 28.8471C2.61888 28.885 2.53427 28.9412 2.46315 29.0123C1.22676 30.2517 0.40676 31.8452 0.116894 33.5717C-0.172972 35.2982 0.0816732 37.0722 0.8455 38.6474C0.898681 38.7547 0.976667 38.8477 1.07299 38.9188C1.16932 38.9899 1.2812 39.037 1.39936 39.0562C1.51753 39.0754 1.63857 39.0661 1.75244 39.0292C1.86632 38.9923 1.96975 38.9287 2.05414 38.8438Z" fill="#A31FA9"/>
<path d="M4.72773 42.533C6.2979 43.2959 8.06612 43.5528 9.78845 43.2681C11.5108 42.9834 13.1023 42.1712 14.3435 40.9436C14.4791 40.8146 14.5635 40.6407 14.5809 40.4543C14.5982 40.2678 14.5475 40.0814 14.4381 39.9294C14.3731 39.8434 14.2903 39.7722 14.1954 39.7208C14.1006 39.6694 13.9958 39.639 13.8881 39.6316C13.7805 39.6241 13.6725 39.6398 13.5715 39.6777C13.4704 39.7155 13.3787 39.7746 13.3024 39.8509C12.2858 40.865 10.9789 41.5379 9.56289 41.7763C8.14684 42.0147 6.6917 41.8068 5.39909 41.1814C5.25758 41.1118 5.09789 41.0881 4.94227 41.1136C4.78664 41.1391 4.64287 41.2125 4.53096 41.3236C4.44599 41.4081 4.38239 41.5116 4.34544 41.6256C4.3085 41.7395 4.29925 41.8607 4.31849 41.9789C4.33774 42.0972 4.38489 42.2091 4.45607 42.3055C4.52723 42.4019 4.62037 42.4799 4.72773 42.533Z" fill="#6DE0F6"/>
<path d="M40.8028 5.78395C41.4258 7.07405 41.6332 8.5255 41.3962 9.93846C41.1594 11.3512 40.49 12.6558 39.4804 13.6722C39.3399 13.8121 39.2589 14.0007 39.2544 14.1988C39.2498 14.3971 39.3221 14.5892 39.4562 14.7353C39.5255 14.8085 39.6089 14.8669 39.7012 14.9073C39.7934 14.9476 39.8929 14.969 39.9937 14.9704C40.0945 14.9717 40.1945 14.9528 40.2878 14.9149C40.3812 14.8769 40.466 14.8206 40.5372 14.7494C41.7735 13.51 42.5934 11.9166 42.8835 10.19C43.1733 8.46359 42.9187 6.68961 42.1548 5.11432C42.1016 5.00714 42.0236 4.91408 41.9273 4.84288C41.8309 4.77187 41.7191 4.72486 41.6009 4.7057C41.4827 4.68655 41.3616 4.69584 41.2478 4.73279C41.1339 4.76974 41.0305 4.8334 40.9462 4.91833C40.8353 5.02978 40.762 5.17314 40.7363 5.32831C40.7105 5.48328 40.7337 5.64271 40.8028 5.78395Z" fill="#6DE0F6"/>
<path d="M28.6455 3.92501C28.7915 4.05909 28.9836 4.13145 29.182 4.1268C29.3801 4.12235 29.5689 4.04129 29.7086 3.90082C30.7257 2.89049 32.0315 2.22087 33.4454 1.98463C34.8595 1.74821 36.3119 1.95677 37.6024 2.58131C37.7439 2.65058 37.9033 2.67399 38.0586 2.64845C38.214 2.62272 38.3576 2.54939 38.4692 2.43834C38.5541 2.35398 38.6176 2.25066 38.6548 2.1369C38.6917 2.02314 38.701 1.90221 38.6818 1.784C38.6627 1.66598 38.6159 1.55396 38.5449 1.4578C38.4739 1.36145 38.381 1.28328 38.2738 1.23008C36.6981 0.463912 34.923 0.207556 33.195 0.496609C31.4669 0.785663 29.8719 1.60581 28.6313 2.84309C28.5599 2.91429 28.5036 2.99922 28.4655 3.09267C28.4274 3.18612 28.4084 3.28615 28.4098 3.38695C28.4112 3.48794 28.4326 3.58739 28.4733 3.67987C28.5137 3.77236 28.5721 3.85555 28.6455 3.92501Z" fill="#A31FA9"/>
<path d="M5.40047 2.57996C6.69071 1.956 8.1428 1.74801 9.5563 1.98463C10.9698 2.22126 12.275 2.89088 13.2918 3.90082C13.4315 4.04129 13.6203 4.12235 13.8184 4.1268C14.0165 4.13145 14.2087 4.05909 14.3547 3.92501C14.4278 3.85574 14.4863 3.77235 14.5267 3.68007C14.5671 3.58778 14.5886 3.48833 14.59 3.38753C14.5913 3.28673 14.5724 3.1869 14.5345 3.09345C14.4965 3.00019 14.4403 2.91525 14.3691 2.84405C13.1291 1.60716 11.5347 0.786823 9.80732 0.497383C8.07996 0.207749 6.30528 0.463136 4.72969 1.22814C4.62248 1.28135 4.52954 1.35951 4.45853 1.45586C4.38751 1.55221 4.34049 1.66404 4.32138 1.78226C4.30226 1.90028 4.31157 2.02139 4.34856 2.13516C4.38555 2.24912 4.44915 2.35243 4.53408 2.43679C4.6457 2.54765 4.78913 2.62117 4.94439 2.6469C5.09967 2.67244 5.25908 2.64903 5.40047 2.57996Z" fill="#6DE0F6"/>
<path d="M3.51964 13.6727C2.50956 12.656 1.83999 11.3508 1.60336 9.9373C1.36673 8.52376 1.57471 7.07172 2.19858 5.78143C2.26783 5.64 2.29126 5.48057 2.26562 5.32541C2.24001 5.17004 2.16658 5.02668 2.05561 4.91504C1.97127 4.83011 1.86789 4.76645 1.75405 4.7295C1.64021 4.69254 1.5192 4.68326 1.40104 4.70241C1.28288 4.72137 1.17098 4.76839 1.07463 4.8394C0.978268 4.9104 0.900226 5.00346 0.846969 5.11065C0.0819461 6.68632 -0.173513 8.46088 0.11606 10.1882C0.405635 11.9156 1.22587 13.51 2.46287 14.75C2.53413 14.8212 2.61891 14.8775 2.71225 14.9154C2.8056 14.9534 2.90559 14.9723 3.00633 14.971C3.10709 14.9696 3.20656 14.9481 3.29887 14.9079C3.39119 14.8675 3.47448 14.809 3.54383 14.7359C3.67783 14.5898 3.75013 14.3977 3.74562 14.1994C3.74111 14.0013 3.66014 13.8126 3.51964 13.6727Z" fill="#D4088C"/>
<path d="M39.4806 30.0896C40.4905 31.1063 41.1601 32.4115 41.3968 33.825C41.6334 35.2385 41.4254 36.6906 40.8014 37.9809C40.7324 38.1223 40.709 38.2817 40.7345 38.4369C40.7602 38.5922 40.8338 38.7357 40.9446 38.8473C41.029 38.9322 41.1323 38.9958 41.2462 39.0328C41.36 39.0698 41.4811 39.0791 41.5991 39.06C41.7174 39.0408 41.8292 38.9938 41.9255 38.9228C42.0219 38.8518 42.1001 38.7588 42.1533 38.6517C42.9183 37.0761 43.1737 35.3014 42.884 33.574C42.5946 31.8466 41.7742 30.2523 40.5373 29.0123C40.4661 28.9411 40.3812 28.8848 40.288 28.8468C40.1947 28.8089 40.0947 28.7901 39.9939 28.7914C39.8931 28.7927 39.7936 28.8142 39.7013 28.8546C39.609 28.895 39.5257 28.9535 39.4564 29.0266C39.3223 29.1726 39.25 29.3648 39.2544 29.563C39.259 29.7611 39.3399 29.9498 39.4806 30.0896Z" fill="#6DE0F6"/>
<path d="M37.5998 41.182C36.3095 41.806 34.8575 42.014 33.444 41.7774C32.0304 41.5408 30.7252 40.8712 29.7085 39.8611C29.5686 39.7207 29.38 39.6397 29.1819 39.6352C28.9836 39.6307 28.7914 39.703 28.6454 39.837C28.5722 39.9063 28.5138 39.9896 28.4734 40.0819C28.4331 40.1742 28.4116 40.2737 28.4103 40.3745C28.4089 40.4752 28.4279 40.5752 28.4658 40.6685C28.5037 40.7619 28.56 40.8467 28.6312 40.9179C29.8712 42.1549 31.4657 42.9752 33.193 43.2647C34.9204 43.5543 36.6949 43.2989 38.2706 42.5338C38.3778 42.4806 38.4709 42.4025 38.5419 42.3062C38.6129 42.2098 38.6599 42.0979 38.6788 41.9798C38.698 41.8616 38.6887 41.7406 38.6518 41.6267C38.6148 41.5129 38.5511 41.4095 38.4662 41.3252C38.3546 41.2142 38.2112 41.1408 38.0558 41.1151C37.9007 41.0895 37.7413 41.1129 37.5998 41.182Z" fill="#A31FA9"/>
</svg>
