<svg width="577" height="413" viewBox="0 0 577 413" fill="none" xmlns="http://www.w3.org/2000/svg">
<mask id="mask0_1_449" style="mask-type:alpha" maskUnits="userSpaceOnUse" x="4" y="0" width="569" height="413">
<rect x="4.5" y="1.46899" width="568" height="410.11" fill="#C4C4C4" stroke="black"/>
</mask>
<g mask="url(#mask0_1_449)">
<path opacity="0.3" d="M122.059 248.241C114.898 248.257 107.771 247.418 100.892 245.748C87.185 242.349 77.7954 236.003 75.1512 228.297C73.303 222.903 75.0433 217.305 80.0619 212.535L80.6015 212.025C92.6218 200.58 120.224 196.16 143.428 201.826C157.148 205.226 166.538 211.572 169.182 219.266C171.03 224.66 169.29 230.258 164.271 235.028L163.732 235.55C155.259 243.641 138.976 248.241 122.059 248.241ZM84.8241 216.07C81.249 219.47 80.0214 223.187 81.2625 226.824C83.2592 232.637 91.2727 237.805 102.686 240.626C123.381 245.737 148.555 241.884 158.969 232.037L159.509 231.516C163.084 228.116 164.312 224.399 163.071 220.773C161.074 214.948 153.06 209.792 141.634 206.971C120.952 201.86 95.7651 205.713 85.3637 215.56L84.8241 216.07Z" fill="#6DE0F6"/>
<path d="M121.802 245.873C114.995 245.892 108.218 245.103 101.674 243.527C88.8849 240.366 80.1834 234.575 77.809 227.663C76.2036 222.983 77.7011 218.291 82.126 214.065L82.6657 213.555C93.8495 202.914 120.764 198.665 142.659 204.07C155.448 207.231 164.15 213.011 166.524 219.934C168.13 224.603 166.632 229.306 162.207 233.533L161.668 234.043C153.816 241.544 138.059 245.873 121.802 245.873ZM82.7601 214.54C78.524 218.563 77.094 223.039 78.6184 227.459C80.8714 234.054 89.5864 239.799 101.917 242.847C123.502 248.185 150.052 243.981 161.034 233.567L161.573 233.057C165.809 229.023 167.239 224.558 165.715 220.127C163.462 213.543 154.747 207.787 142.416 204.738C120.831 199.401 94.2812 203.605 83.2997 214.019L82.7601 214.54Z" fill="#6DE0F6"/>
<path d="M122.181 241.646C111.941 241.646 101.702 239.754 93.85 235.98C85.9983 232.207 82.0725 227.391 82.0725 222.167C82.0725 216.943 86.2547 212.025 93.85 208.342C109.432 200.784 134.794 200.784 150.39 208.342C157.985 212.025 162.167 216.932 162.167 222.167C162.167 227.402 157.985 232.298 150.39 235.98C142.794 239.663 132.42 241.646 122.181 241.646ZM122.181 203.039C112.022 203.039 101.863 204.909 94.1333 208.705C86.6729 212.32 82.5717 217.113 82.5717 222.212C82.5717 227.312 86.6189 232.094 94.1333 235.708C109.594 243.21 134.767 243.21 150.241 235.708C157.688 232.094 161.789 227.3 161.789 222.212C161.789 217.124 157.742 212.32 150.241 208.705C142.498 204.909 132.339 203.039 122.181 203.039Z" fill="url(#paint0_linear_1_449)"/>
<path opacity="0.6" d="M122.181 238.473C140.755 238.473 155.813 231.173 155.813 222.167C155.813 213.161 140.755 205.86 122.181 205.86C103.606 205.86 88.548 213.161 88.548 222.167C88.548 231.173 103.606 238.473 122.181 238.473Z" fill="#0C0F38"/>
<path d="M162.005 213.781V202.846H154.963C153.521 201.833 151.977 200.927 150.349 200.138C134.794 192.602 109.58 192.602 94.0252 200.138C92.3952 200.924 90.8512 201.831 89.4113 202.846H82.3152V213.793C82.3152 218.745 86.2005 223.685 93.9847 227.459C109.54 234.994 134.754 234.994 150.309 227.459C158.133 223.685 162.019 218.733 162.005 213.781Z" fill="url(#paint1_linear_1_449)"/>
<path d="M82.7199 213.509V202.846H82.3152V213.793C82.3152 218.223 85.4585 222.643 91.6913 226.258C85.7283 222.495 82.7199 218.008 82.7199 213.509Z" fill="#D4088C"/>
<path d="M161.385 202.846V213.43C161.385 218.382 157.5 223.323 149.715 227.107C134.161 234.643 108.946 234.643 93.3915 227.107C92.5955 226.722 91.8805 226.314 91.1655 225.906C92.0559 226.439 93.0002 226.96 94.0255 227.459C109.58 234.994 134.795 234.994 150.349 227.459C158.134 223.685 162.019 218.733 162.006 213.781V202.846H161.385Z" fill="#6DE0F6"/>
<path d="M122.181 222.167C144.175 222.167 162.006 213.517 162.006 202.846C162.006 192.175 144.175 183.525 122.181 183.525C100.186 183.525 82.3561 192.175 82.3561 202.846C82.3561 213.517 100.186 222.167 122.181 222.167Z" fill="url(#paint2_linear_1_449)"/>
<path d="M95.091 189.395C102.997 185.554 113.317 183.627 123.678 183.571C112.993 183.378 102.174 185.236 93.9982 189.237C81.8565 195.106 79.0909 203.968 86.0117 210.96C80.0757 203.73 83.0977 195.186 95.091 189.395Z" fill="#D4088C"/>
<path d="M150.349 189.191C145.954 187.129 141.208 185.646 136.278 184.794C140.722 185.659 144.997 187.052 148.973 188.931C164.528 196.466 164.528 208.693 148.973 216.24C137.56 221.781 120.925 223.232 106.747 220.637C121.222 223.595 138.571 222.223 150.376 216.501C165.958 208.965 165.958 196.738 150.349 189.191Z" fill="#6DE0F6"/>
<path d="M121.992 215.186C136.052 215.186 147.449 209.661 147.449 202.846C147.449 196.031 136.052 190.506 121.992 190.506C107.932 190.506 96.5349 196.031 96.5349 202.846C96.5349 209.661 107.932 215.186 121.992 215.186Z" fill="#6DE0F6"/>
<path d="M103.995 200.738C113.937 195.911 130.045 195.911 139.988 200.738C142.761 201.95 145.033 203.838 146.504 206.155C148.865 202.008 146.706 197.384 139.988 194.121C130.045 189.305 113.937 189.305 103.995 194.121C97.2493 197.384 95.1178 202.053 97.4787 206.155C98.9502 203.838 101.222 201.95 103.995 200.738Z" fill="#18D0F7"/>
<path d="M103.995 198.404C113.938 193.577 130.045 193.577 139.988 198.404C143.833 200.262 146.167 202.574 147.044 204.988C148.393 201.158 146.086 197.056 139.988 194.121C130.045 189.305 113.938 189.305 103.995 194.121C97.897 197.078 95.5631 201.158 96.9392 204.988C97.8161 202.574 100.15 200.262 103.995 198.404Z" fill="#25BFEC"/>
<path d="M103.995 196.319C113.938 191.492 130.046 191.492 139.989 196.319C144.387 198.449 146.829 201.169 147.341 203.945C147.975 200.432 145.533 196.806 139.989 194.121C130.046 189.305 113.938 189.305 103.995 194.121C98.4507 196.806 96.0088 200.432 96.6429 203.945C97.1555 201.158 99.5974 198.449 103.995 196.319Z" fill="#267FE5"/>
<path d="M142.794 187.933C142.407 187.812 141.989 187.773 141.58 187.821C141.17 187.868 140.781 188 140.447 188.205C139.948 188.591 140.204 189.101 141 189.339C141.387 189.46 141.805 189.499 142.214 189.452C142.624 189.404 143.013 189.272 143.347 189.067C143.846 188.681 143.59 188.171 142.794 187.933Z" fill="#6DE0F6"/>
<path opacity="0.8" d="M148.42 190.222C148.05 190.07 147.644 189.991 147.233 189.991C146.821 189.991 146.415 190.07 146.045 190.222C145.411 190.551 145.452 191.061 146.126 191.356C146.496 191.508 146.902 191.587 147.314 191.587C147.725 191.587 148.131 191.508 148.501 191.356C149.135 191.038 149.094 190.528 148.42 190.222Z" fill="#6DE0F6"/>
<path opacity="0.6" d="M153.034 192.987C152.688 192.803 152.294 192.691 151.886 192.659C151.478 192.628 151.067 192.678 150.687 192.806C149.931 193.078 149.769 193.577 150.309 193.939C150.655 194.124 151.048 194.237 151.456 194.269C151.865 194.3 152.276 194.249 152.656 194.121C153.398 193.86 153.574 193.361 153.034 192.987Z" fill="#6DE0F6"/>
<path opacity="0.4" d="M156.434 196.149C156.137 195.924 155.776 195.768 155.385 195.696C154.995 195.625 154.589 195.64 154.208 195.741C153.371 195.934 152.994 196.41 153.385 196.818C153.684 197.039 154.046 197.192 154.435 197.264C154.825 197.335 155.229 197.322 155.611 197.225C156.515 197.033 156.825 196.557 156.434 196.149Z" fill="#6DE0F6"/>
<path opacity="0.2" d="M158.511 199.56C158.282 199.303 157.968 199.108 157.608 199.001C157.248 198.894 156.858 198.88 156.487 198.959C155.584 199.061 155.03 199.492 155.246 199.934C155.475 200.191 155.789 200.385 156.149 200.492C156.51 200.599 156.9 200.614 157.27 200.534C158.174 200.432 158.727 199.99 158.511 199.56Z" fill="#6DE0F6"/>
<path opacity="0.1" d="M159.01 203.492C159.415 203.084 159.01 202.597 158.241 202.359C157.859 202.253 157.451 202.231 157.056 202.297C156.661 202.362 156.293 202.513 155.988 202.733C155.583 203.129 155.988 203.617 156.757 203.866C157.14 203.969 157.547 203.988 157.941 203.923C158.335 203.858 158.703 203.709 159.01 203.492Z" fill="#6DE0F6"/>
<path d="M162.005 190.245V179.321H154.963C153.524 178.305 151.98 177.399 150.349 176.613C134.794 169.066 109.58 169.066 94.0252 176.613C92.3922 177.396 90.8479 178.302 89.4113 179.321H82.3152V190.268C82.3152 195.208 86.2005 200.149 93.9847 203.923C109.54 211.47 134.754 211.47 150.309 203.923C158.133 200.149 162.019 195.186 162.005 190.245Z" fill="url(#paint3_linear_1_449)"/>
<path d="M82.7199 189.984V179.321H82.3152V190.268C82.3152 194.687 85.4585 199.107 91.6913 202.733C85.7283 198.971 82.7199 194.472 82.7199 189.984Z" fill="#D4088C"/>
<path d="M161.385 179.321V189.894C161.385 194.846 157.5 199.798 149.715 203.571C134.161 211.118 108.946 211.118 93.3915 203.571C92.5955 203.186 91.8805 202.789 91.1655 202.381C92.0559 202.914 93.0002 203.424 94.0255 203.923C109.58 211.47 134.795 211.47 150.349 203.923C158.134 200.149 162.019 195.197 162.006 190.245V179.321H161.385Z" fill="#6DE0F6"/>
<path d="M122.181 198.631C144.175 198.631 162.006 189.985 162.006 179.321C162.006 168.657 144.175 160.012 122.181 160.012C100.186 160.012 82.3561 168.657 82.3561 179.321C82.3561 189.985 100.186 198.631 122.181 198.631Z" fill="url(#paint4_linear_1_449)"/>
<path d="M95.091 165.859C102.997 162.029 113.317 160.091 123.678 160.034C112.993 159.842 102.174 161.7 93.9982 165.7C81.8565 171.582 79.0909 180.432 86.0117 187.423C80.0757 180.205 83.0977 171.684 95.091 165.859Z" fill="#D4088C"/>
<path d="M150.349 165.655C145.951 163.598 141.207 162.115 136.278 161.258C140.722 162.123 144.997 163.516 148.973 165.394C164.528 172.941 164.528 185.168 148.973 192.715C137.56 198.245 120.925 199.707 106.747 197.112C121.222 200.07 138.571 198.699 150.376 192.976C165.958 185.429 165.958 173.202 150.349 165.655Z" fill="#6DE0F6"/>
<path d="M139.988 188.047C130.045 192.863 113.937 192.863 103.995 188.047C94.0519 183.231 94.0519 175.412 103.995 170.584C113.937 165.757 130.045 165.768 139.988 170.584C149.931 175.4 149.931 183.219 139.988 188.047Z" fill="#6DE0F6"/>
<path d="M103.995 177.202C113.937 172.386 130.045 172.386 139.988 177.202C142.763 178.418 145.034 180.31 146.504 182.63C148.865 178.483 146.706 173.848 139.988 170.584C130.045 165.768 113.937 165.768 103.995 170.584C97.2493 173.848 95.1178 178.517 97.4787 182.63C98.9487 180.31 101.22 178.418 103.995 177.202Z" fill="#18D0F7"/>
<path d="M103.995 174.868C113.938 170.052 130.045 170.052 139.988 174.868C143.833 176.726 146.167 179.049 147.044 181.452C148.393 177.633 146.086 173.519 139.988 170.584C130.045 165.768 113.938 165.768 103.995 170.584C97.897 173.542 95.5631 177.633 96.9392 181.452C97.8161 179.038 100.15 176.726 103.995 174.868Z" fill="#25BFEC"/>
<path d="M103.995 172.783C113.938 167.967 130.046 167.967 139.989 172.783C144.387 174.913 146.829 177.633 147.341 180.42C147.975 176.908 145.533 173.281 139.989 170.584C130.046 165.768 113.938 165.768 103.995 170.584C98.4507 173.281 96.0088 176.896 96.6429 180.42C97.1555 177.633 99.5974 174.913 103.995 172.783Z" fill="#267FE5"/>
<path d="M142.794 164.397C142.406 164.279 141.989 164.241 141.58 164.289C141.171 164.336 140.782 164.467 140.447 164.669C139.948 165.066 140.204 165.576 141 165.802C141.388 165.921 141.805 165.958 142.214 165.911C142.623 165.863 143.012 165.733 143.347 165.53C143.846 165.145 143.59 164.59 142.794 164.397Z" fill="#6DE0F6"/>
<path opacity="0.8" d="M148.42 166.686C148.05 166.534 147.644 166.455 147.233 166.455C146.821 166.455 146.415 166.534 146.045 166.686C145.411 167.015 145.452 167.536 146.126 167.819C146.496 167.972 146.902 168.051 147.314 168.051C147.725 168.051 148.131 167.972 148.501 167.819C149.135 167.514 149.094 166.992 148.42 166.686Z" fill="#6DE0F6"/>
<path opacity="0.6" d="M153.034 169.463C152.689 169.276 152.295 169.162 151.887 169.13C151.478 169.099 151.066 169.151 150.687 169.281C149.931 169.542 149.769 170.052 150.309 170.414C150.655 170.599 151.048 170.712 151.456 170.744C151.865 170.775 152.276 170.725 152.656 170.596C153.398 170.335 153.574 169.825 153.034 169.463Z" fill="#6DE0F6"/>
<path opacity="0.4" d="M156.434 172.613C156.136 172.39 155.774 172.236 155.384 172.166C154.993 172.097 154.588 172.114 154.208 172.216C153.371 172.397 152.994 172.885 153.385 173.349C153.684 173.571 154.046 173.725 154.436 173.794C154.826 173.864 155.231 173.847 155.611 173.746C156.515 173.508 156.825 173.021 156.434 172.613Z" fill="#6DE0F6"/>
<path opacity="0.2" d="M158.511 176.024C158.279 175.77 157.964 175.578 157.605 175.472C157.246 175.365 156.858 175.348 156.487 175.423C155.584 175.525 155.03 175.967 155.246 176.409C155.478 176.663 155.793 176.855 156.152 176.961C156.511 177.068 156.9 177.085 157.27 177.01C158.174 176.908 158.727 176.466 158.511 176.024Z" fill="#6DE0F6"/>
<path opacity="0.1" d="M159.01 179.956C159.415 179.559 159.01 179.072 158.241 178.823C157.858 178.722 157.451 178.703 157.058 178.769C156.664 178.834 156.297 178.981 155.988 179.197C155.583 179.605 155.988 180.092 156.757 180.33C157.139 180.436 157.547 180.457 157.942 180.392C158.337 180.326 158.705 180.176 159.01 179.956Z" fill="#6DE0F6"/>
<path opacity="0.5" d="M162.018 165.474L149.674 165.349C134.686 158.403 111.252 158.233 95.8323 164.839L82.3415 164.703V178.789C82.0582 183.911 85.93 189.067 93.984 192.976C109.539 200.523 134.753 200.523 150.308 192.976C158.402 189.067 162.234 183.911 161.951 178.789L162.018 165.474Z" fill="#6DE0F6"/>
<path d="M162.005 166.72V155.785H154.963C153.521 154.772 151.977 153.866 150.349 153.077C134.794 145.541 109.58 145.541 94.0252 153.077C92.3952 153.864 90.8512 154.77 89.4113 155.785H82.3152V166.732C82.3152 171.684 86.2005 176.624 93.9847 180.398C109.54 187.933 134.754 187.933 150.309 180.398C158.133 176.613 162.019 171.672 162.005 166.72Z" fill="url(#paint5_linear_1_449)"/>
<path d="M82.7199 166.448V155.785H82.3152V166.732C82.3152 171.162 85.4585 175.582 91.6913 179.197C85.7283 175.434 82.7199 170.947 82.7199 166.448Z" fill="#D4088C"/>
<path d="M161.385 155.785V166.369C161.385 171.321 157.5 176.262 149.715 180.046C134.161 187.582 108.946 187.582 93.3915 180.046C92.5955 179.661 91.8805 179.253 91.1655 178.845C92.0559 179.378 93.0002 179.899 94.0255 180.398C109.58 187.933 134.795 187.933 150.349 180.398C158.134 176.613 162.019 171.672 162.006 166.72V155.785H161.385Z" fill="#6DE0F6"/>
<path d="M122.181 175.106C144.175 175.106 162.006 166.456 162.006 155.785C162.006 145.114 144.175 136.464 122.181 136.464C100.186 136.464 82.3561 145.114 82.3561 155.785C82.3561 166.456 100.186 175.106 122.181 175.106Z" fill="url(#paint6_linear_1_449)"/>
<path d="M95.091 142.323C102.997 138.493 113.317 136.566 123.678 136.51C112.993 136.317 102.174 138.175 93.9982 142.176C81.8565 148.045 79.0909 156.907 86.0117 163.899C80.0757 156.658 83.0977 148.147 95.091 142.323Z" fill="#D4088C"/>
<path d="M150.349 142.13C145.954 140.068 141.208 138.585 136.278 137.733C140.722 138.598 144.997 139.991 148.973 141.87C164.528 149.405 164.528 161.632 148.973 169.179C137.56 174.721 120.925 176.171 106.747 173.576C121.222 176.534 138.571 175.162 150.376 169.44C165.958 161.904 165.958 149.677 150.349 142.13Z" fill="#6DE0F6"/>
<path d="M121.992 168.125C136.052 168.125 147.449 162.6 147.449 155.785C147.449 148.97 136.052 143.445 121.992 143.445C107.932 143.445 96.5349 148.97 96.5349 155.785C96.5349 162.6 107.932 168.125 121.992 168.125Z" fill="#6DE0F6"/>
<path d="M103.995 153.677C113.937 148.85 130.045 148.85 139.988 153.677C142.761 154.889 145.033 156.777 146.504 159.094C148.865 154.946 146.706 150.323 139.988 147.06C130.045 142.232 113.937 142.232 103.995 147.06C97.2493 150.323 95.1178 154.992 97.4787 159.094C98.9502 156.777 101.222 154.889 103.995 153.677Z" fill="#18D0F7"/>
<path d="M103.995 151.332C113.938 146.516 130.045 146.516 139.988 151.332C143.833 153.201 146.167 155.513 147.044 157.927C148.393 154.097 146.086 149.994 139.988 147.06C130.045 142.232 113.938 142.232 103.995 147.06C97.897 150.017 95.5631 154.097 96.9392 157.927C97.8161 155.524 100.15 153.258 103.995 151.332Z" fill="#25BFEC"/>
<path d="M103.995 149.258C113.938 144.431 130.046 144.431 139.989 149.258C144.387 151.388 146.829 154.108 147.341 156.884C147.975 153.371 145.533 149.745 139.989 147.06C130.046 142.232 113.938 142.232 103.995 147.06C98.4507 149.745 96.0088 153.371 96.6429 156.884C97.1555 154.097 99.5974 151.388 103.995 149.258Z" fill="#267FE5"/>
<path d="M142.794 140.872C142.407 140.751 141.989 140.712 141.58 140.76C141.17 140.807 140.781 140.939 140.447 141.144C139.948 141.53 140.204 142.04 141 142.278C141.387 142.399 141.805 142.438 142.214 142.391C142.624 142.343 143.013 142.211 143.347 142.006C143.846 141.62 143.59 141.11 142.794 140.872Z" fill="#6DE0F6"/>
<path opacity="0.8" d="M148.42 143.162C148.05 143.009 147.644 142.93 147.233 142.93C146.821 142.93 146.415 143.009 146.045 143.162C145.411 143.49 145.452 144 146.126 144.295C146.493 144.454 146.9 144.537 147.314 144.537C147.727 144.537 148.134 144.454 148.501 144.295C149.135 143.977 149.094 143.467 148.42 143.162Z" fill="#6DE0F6"/>
<path opacity="0.6" d="M153.034 145.926C152.688 145.742 152.294 145.63 151.886 145.598C151.478 145.567 151.067 145.617 150.687 145.745C149.931 146.006 149.769 146.516 150.309 146.878C150.655 147.063 151.048 147.176 151.456 147.208C151.865 147.239 152.276 147.188 152.656 147.06C153.398 146.799 153.574 146.289 153.034 145.926Z" fill="#6DE0F6"/>
<path opacity="0.4" d="M156.434 149.077C156.135 148.855 155.773 148.703 155.383 148.633C154.993 148.564 154.588 148.58 154.208 148.68C153.371 148.873 152.994 149.349 153.385 149.756C153.684 149.978 154.046 150.131 154.435 150.203C154.825 150.274 155.229 150.261 155.611 150.164C156.515 149.972 156.825 149.496 156.434 149.077Z" fill="#6DE0F6"/>
<path opacity="0.2" d="M158.511 152.499C158.282 152.242 157.968 152.047 157.608 151.94C157.248 151.833 156.858 151.819 156.487 151.898C155.584 152 155.03 152.431 155.246 152.873C155.462 153.315 156.366 153.575 157.27 153.473C158.174 153.371 158.727 152.929 158.511 152.499Z" fill="#6DE0F6"/>
<path opacity="0.1" d="M159.01 156.431C159.415 156.023 159.01 155.536 158.241 155.298C157.859 155.192 157.451 155.17 157.056 155.236C156.661 155.301 156.293 155.452 155.988 155.672C155.583 156.068 155.988 156.556 156.757 156.805C157.14 156.906 157.547 156.924 157.94 156.859C158.334 156.793 158.702 156.646 159.01 156.431Z" fill="#6DE0F6"/>
<path d="M162.005 143.184V132.26H154.963C153.524 131.244 151.98 130.338 150.349 129.552C134.794 122.005 109.58 122.005 94.0252 129.552C92.3922 130.335 90.8479 131.241 89.4113 132.26H82.3152V143.207C82.3152 148.147 86.2005 153.088 93.9847 156.862C109.54 164.409 134.754 164.409 150.309 156.862C158.133 153.088 162.019 148.136 162.005 143.184Z" fill="url(#paint7_linear_1_449)"/>
<path d="M82.7199 142.923V132.26H82.3152V143.207C82.3152 147.626 85.4585 152.046 91.6913 155.672C85.7283 151.91 82.7199 147.411 82.7199 142.923Z" fill="#D4088C"/>
<path d="M161.385 132.26V142.833C161.385 147.785 157.5 152.737 149.715 156.51C134.161 164.057 108.946 164.057 93.3915 156.51C92.5955 156.125 91.8805 155.728 91.1655 155.32C92.0559 155.853 93.0002 156.363 94.0255 156.862C109.58 164.408 134.795 164.408 150.349 156.862C158.134 153.088 162.019 148.136 162.006 143.184V132.26H161.385Z" fill="#6DE0F6"/>
<path d="M122.181 151.57C144.175 151.57 162.006 142.924 162.006 132.26C162.006 121.596 144.175 112.951 122.181 112.951C100.186 112.951 82.3561 121.596 82.3561 132.26C82.3561 142.924 100.186 151.57 122.181 151.57Z" fill="url(#paint8_linear_1_449)"/>
<path d="M95.091 118.798C102.997 114.968 113.317 113.03 123.678 112.973C112.993 112.781 102.174 114.639 93.9982 118.639C81.8565 124.52 79.0909 133.371 86.0117 140.362C80.0757 133.144 83.0977 124.611 95.091 118.798Z" fill="#D4088C"/>
<path d="M150.349 118.594C145.954 116.532 141.208 115.049 136.278 114.197C140.722 115.062 144.997 116.455 148.973 118.333C164.528 125.88 164.528 138.107 148.973 145.654C137.56 151.184 120.925 152.646 106.747 150.051C121.222 153.009 138.571 151.638 150.376 145.915C165.958 138.368 165.958 126.141 150.349 118.594Z" fill="#6DE0F6"/>
<path d="M139.988 140.986C130.045 145.802 113.937 145.802 103.995 140.986C94.0519 136.17 94.0519 128.351 103.995 123.523C113.937 118.696 130.045 118.707 139.988 123.523C149.931 128.339 149.931 136.158 139.988 140.986Z" fill="#6DE0F6"/>
<path d="M103.995 130.141C113.937 125.325 130.045 125.325 139.988 130.141C142.763 131.357 145.034 133.249 146.504 135.569C148.865 131.422 146.706 126.787 139.988 123.523C130.045 118.707 113.937 118.707 103.995 123.523C97.2493 126.787 95.1178 131.456 97.4787 135.558C98.9536 133.243 101.224 131.356 103.995 130.141Z" fill="#18D0F7"/>
<path d="M103.995 127.807C113.938 122.991 130.045 122.991 139.988 127.807C143.833 129.665 146.167 131.977 147.044 134.391C148.393 130.572 146.086 126.458 139.988 123.523C130.045 118.707 113.938 118.707 103.995 123.523C97.897 126.481 95.5631 130.572 96.9392 134.391C97.8161 131.977 100.15 129.665 103.995 127.807Z" fill="#25BFEC"/>
<path d="M103.995 125.722C113.938 120.906 130.046 120.906 139.989 125.722C144.387 127.852 146.829 130.572 147.341 133.359C147.975 129.835 145.533 126.22 139.989 123.523C130.046 118.707 113.938 118.707 103.995 123.523C98.4507 126.22 96.0088 129.835 96.6429 133.359C97.1555 130.594 99.5974 127.852 103.995 125.722Z" fill="#267FE5"/>
<path d="M142.794 117.336C142.406 117.218 141.989 117.18 141.58 117.228C141.171 117.275 140.782 117.406 140.447 117.608C139.948 117.993 140.204 118.515 141 118.741C141.388 118.86 141.805 118.897 142.214 118.85C142.623 118.802 143.012 118.672 143.347 118.469C143.846 118.129 143.59 117.574 142.794 117.336Z" fill="#6DE0F6"/>
<path opacity="0.8" d="M148.42 119.625C148.05 119.473 147.644 119.394 147.233 119.394C146.821 119.394 146.415 119.473 146.045 119.625C145.411 119.954 145.452 120.475 146.126 120.758C146.496 120.911 146.902 120.99 147.314 120.99C147.725 120.99 148.131 120.911 148.501 120.758C149.135 120.453 149.094 119.931 148.42 119.625Z" fill="#6DE0F6"/>
<path opacity="0.6" d="M153.034 122.402C152.689 122.215 152.295 122.101 151.887 122.069C151.478 122.038 151.066 122.09 150.687 122.22C149.931 122.481 149.769 122.991 150.309 123.353C150.655 123.538 151.048 123.651 151.456 123.683C151.865 123.714 152.276 123.664 152.656 123.535C153.398 123.274 153.574 122.764 153.034 122.402Z" fill="#6DE0F6"/>
<path opacity="0.4" d="M156.434 125.552C156.136 125.329 155.774 125.175 155.384 125.105C154.993 125.036 154.588 125.053 154.208 125.155C153.371 125.336 152.994 125.824 153.385 126.288C153.684 126.51 154.046 126.664 154.436 126.733C154.826 126.803 155.231 126.786 155.611 126.685C156.515 126.447 156.825 125.96 156.434 125.552Z" fill="#6DE0F6"/>
<path opacity="0.2" d="M158.511 128.963C158.286 128.707 157.978 128.511 157.624 128.398C157.27 128.286 156.885 128.261 156.515 128.328C155.611 128.43 155.058 128.872 155.274 129.314C155.506 129.568 155.82 129.759 156.179 129.866C156.539 129.973 156.927 129.989 157.297 129.914C158.174 129.846 158.727 129.461 158.511 128.963Z" fill="#6DE0F6"/>
<path opacity="0.1" d="M159.01 132.861C159.415 132.464 159.01 131.977 158.241 131.728C157.858 131.627 157.451 131.608 157.058 131.674C156.664 131.739 156.297 131.886 155.988 132.102C155.583 132.51 155.988 132.997 156.757 133.235C157.139 133.341 157.547 133.362 157.942 133.297C158.337 133.231 158.705 133.081 159.01 132.861Z" fill="#6DE0F6"/>
<path opacity="0.5" d="M162.018 118.413L149.674 118.288C134.686 111.342 111.252 111.172 95.8323 117.778L82.3415 117.642V131.728C82.0582 136.85 85.93 142.006 93.984 145.915C109.539 153.451 134.753 153.451 150.308 145.915C158.402 142.006 162.234 136.85 161.951 131.728L162.018 118.413Z" fill="#6DE0F6"/>
<path d="M162.005 119.659V108.724H154.963C153.521 107.711 151.977 106.805 150.349 106.016C134.794 98.4688 109.58 98.4688 94.0252 106.016C92.3952 106.803 90.8512 107.709 89.4113 108.724H82.3152V119.671C82.3152 124.623 86.2005 129.563 93.9847 133.337C109.54 140.872 134.754 140.872 150.309 133.337C158.133 129.552 162.019 124.611 162.005 119.659Z" fill="url(#paint9_linear_1_449)"/>
<path d="M82.7199 119.387V108.724H82.3152V119.671C82.3152 124.101 85.4585 128.521 91.6913 132.136C85.7283 128.328 82.7199 123.886 82.7199 119.387Z" fill="#D4088C"/>
<path d="M161.385 108.724V119.263C161.385 124.215 157.5 129.155 149.715 132.94C134.161 140.476 108.946 140.476 93.3915 132.94C92.5955 132.555 91.8805 132.147 91.1655 131.739C92.0559 132.271 93.0002 132.793 94.0255 133.291C109.58 140.827 134.795 140.827 150.349 133.291C158.134 129.507 162.019 124.566 162.006 119.614V108.724H161.385Z" fill="#6DE0F6"/>
<path d="M150.349 122.379C134.794 129.926 109.58 129.926 94.025 122.379C78.4701 114.832 78.4701 102.605 94.025 95.0692C109.58 87.5335 134.794 87.5222 150.349 95.0692C165.904 102.616 165.958 114.843 150.349 122.379Z" fill="url(#paint10_linear_1_449)"/>
<path d="M95.091 95.2619C102.997 91.4318 113.317 89.5054 123.678 89.4487C112.993 89.2561 102.174 91.1145 93.9982 95.1146C81.8565 100.984 79.0909 109.846 86.0117 116.838C80.0757 109.608 83.0977 101.132 95.091 95.2619Z" fill="#D4088C"/>
<path d="M150.349 95.0692C145.954 93.0073 141.208 91.5245 136.278 90.6725C140.722 91.5375 144.997 92.9302 148.973 94.8086C164.528 102.344 164.528 114.571 148.973 122.118C137.56 127.66 120.925 129.11 106.747 126.515C121.222 129.473 138.571 128.101 150.376 122.379C165.958 114.843 165.958 102.605 150.349 95.0692Z" fill="#6DE0F6"/>
<path d="M121.992 121.064C136.052 121.064 147.449 115.539 147.449 108.724C147.449 101.909 136.052 96.3838 121.992 96.3838C107.932 96.3838 96.5349 101.909 96.5349 108.724C96.5349 115.539 107.932 121.064 121.992 121.064Z" fill="#6DE0F6"/>
<path d="M103.995 106.616C113.937 101.789 130.045 101.789 139.988 106.616C142.761 107.828 145.033 109.717 146.504 112.033C148.865 107.886 146.706 103.262 139.988 99.9987C130.045 95.1713 113.937 95.1713 103.995 99.9987C97.2493 103.262 95.1178 107.931 97.4787 112.033C98.9502 109.717 101.222 107.828 103.995 106.616Z" fill="#18D0F7"/>
<path d="M103.995 104.271C113.938 99.4547 130.045 99.4547 139.988 104.271C143.833 106.141 146.167 108.452 147.044 110.866C148.393 107.036 146.086 102.934 139.988 99.9987C130.045 95.1713 113.938 95.1713 103.995 99.9987C97.897 102.956 95.5631 107.036 96.9392 110.866C97.8161 108.452 100.15 106.141 103.995 104.271Z" fill="#25BFEC"/>
<path d="M103.995 102.197C113.938 97.3697 130.046 97.3697 139.989 102.197C144.387 104.327 146.829 107.036 147.341 109.823C147.975 106.31 145.533 102.684 139.989 99.9987C130.046 95.1713 113.938 95.1713 103.995 99.9987C98.4507 102.684 96.0088 106.31 96.6429 109.823C97.1555 107.036 99.5974 104.327 103.995 102.197Z" fill="#267FE5"/>
<path d="M142.794 93.8113C142.407 93.6897 141.989 93.6509 141.58 93.6984C141.17 93.7459 140.781 93.8781 140.447 94.0833C139.948 94.4686 140.204 94.9785 141 95.2165C141.387 95.3381 141.805 95.3769 142.214 95.3294C142.624 95.282 143.013 95.1497 143.347 94.9445C143.846 94.5592 143.59 94.0493 142.794 93.8113Z" fill="#6DE0F6"/>
<path opacity="0.8" d="M148.42 96.1004C148.05 95.9483 147.644 95.8693 147.233 95.8693C146.821 95.8693 146.415 95.9483 146.045 96.1004C145.411 96.429 145.452 96.939 146.126 97.2336C146.493 97.3926 146.9 97.4756 147.314 97.4756C147.727 97.4756 148.134 97.3926 148.501 97.2336C149.135 96.9163 149.094 96.4064 148.42 96.1004Z" fill="#6DE0F6"/>
<path opacity="0.6" d="M153.034 98.8653C152.688 98.6813 152.294 98.5689 151.886 98.5374C151.478 98.5059 151.067 98.5561 150.687 98.684C149.931 98.9447 149.769 99.4546 150.309 99.8172C150.652 100.007 151.045 100.123 151.454 100.157C151.863 100.19 152.276 100.14 152.656 100.01C153.398 99.7379 153.574 99.228 153.034 98.8653Z" fill="#6DE0F6"/>
<path opacity="0.4" d="M156.434 102.016C156.135 101.794 155.773 101.642 155.383 101.572C154.993 101.503 154.588 101.519 154.208 101.619C153.371 101.812 152.994 102.288 153.385 102.695C153.684 102.917 154.046 103.07 154.435 103.142C154.825 103.213 155.229 103.2 155.611 103.103C156.515 102.911 156.825 102.435 156.434 102.016Z" fill="#6DE0F6"/>
<path opacity="0.2" d="M158.511 105.438C158.282 105.181 157.968 104.986 157.608 104.877C157.249 104.769 156.859 104.751 156.487 104.826C155.584 104.939 155.03 105.37 155.246 105.812C155.462 106.254 156.366 106.514 157.27 106.412C158.174 106.31 158.727 105.868 158.511 105.438Z" fill="#6DE0F6"/>
<path opacity="0.1" d="M159.01 109.37C159.415 108.962 159.01 108.475 158.241 108.237C157.859 108.131 157.451 108.109 157.056 108.175C156.661 108.24 156.293 108.391 155.988 108.611C155.583 109.007 155.988 109.495 156.757 109.744C157.14 109.845 157.547 109.863 157.94 109.798C158.334 109.733 158.702 109.585 159.01 109.37Z" fill="#6DE0F6"/>
<path d="M122.747 135.456C124.125 135.456 125.243 134.517 125.243 133.359C125.243 132.202 124.125 131.263 122.747 131.263C121.368 131.263 120.251 132.202 120.251 133.359C120.251 134.517 121.368 135.456 122.747 135.456Z" fill="#6DE0F6"/>
<path d="M122.788 134.674C122.206 134.672 121.642 134.5 121.195 134.188C120.747 133.876 120.442 133.443 120.332 132.963C120.318 133.095 120.318 133.227 120.332 133.359C120.379 133.89 120.663 134.387 121.127 134.749C121.591 135.111 122.201 135.313 122.835 135.313C123.469 135.313 124.079 135.111 124.543 134.749C125.007 134.387 125.291 133.89 125.337 133.359C125.358 133.228 125.358 133.094 125.337 132.963C125.228 133.458 124.91 133.903 124.442 134.217C123.973 134.531 123.386 134.693 122.788 134.674Z" fill="#267FE5"/>
<path d="M122.747 158.981C124.125 158.981 125.243 158.042 125.243 156.884C125.243 155.726 124.125 154.788 122.747 154.788C121.368 154.788 120.251 155.726 120.251 156.884C120.251 158.042 121.368 158.981 122.747 158.981Z" fill="#6DE0F6"/>
<path d="M122.787 158.199C122.205 158.197 121.642 158.025 121.194 157.713C120.746 157.401 120.441 156.968 120.332 156.488C120.319 156.62 120.319 156.752 120.332 156.884C120.307 157.173 120.353 157.464 120.467 157.737C120.581 158.01 120.761 158.261 120.996 158.473C121.231 158.686 121.516 158.855 121.832 158.971C122.148 159.087 122.489 159.146 122.835 159.146C123.18 159.146 123.521 159.087 123.837 158.971C124.153 158.855 124.438 158.686 124.673 158.473C124.908 158.261 125.088 158.01 125.202 157.737C125.316 157.464 125.362 157.173 125.337 156.884C125.357 156.753 125.357 156.619 125.337 156.488C125.227 156.982 124.909 157.428 124.441 157.742C123.973 158.056 123.386 158.218 122.787 158.199Z" fill="#267FE5"/>
<path d="M122.747 182.517C124.125 182.517 125.243 181.578 125.243 180.42C125.243 179.263 124.125 178.324 122.747 178.324C121.368 178.324 120.251 179.263 120.251 180.42C120.251 181.578 121.368 182.517 122.747 182.517Z" fill="#6DE0F6"/>
<path d="M122.788 181.735C122.206 181.733 121.642 181.561 121.195 181.249C120.747 180.937 120.442 180.504 120.332 180.024C120.318 180.156 120.318 180.288 120.332 180.42C120.379 180.951 120.663 181.448 121.127 181.81C121.591 182.172 122.201 182.374 122.835 182.374C123.469 182.374 124.079 182.172 124.543 181.81C125.007 181.448 125.291 180.951 125.337 180.42C125.358 180.289 125.358 180.155 125.337 180.024C125.228 180.519 124.91 180.964 124.442 181.278C123.973 181.592 123.386 181.754 122.788 181.735Z" fill="#267FE5"/>
<path d="M122.747 206.042C124.125 206.042 125.243 205.103 125.243 203.945C125.243 202.787 124.125 201.849 122.747 201.849C121.368 201.849 120.251 202.787 120.251 203.945C120.251 205.103 121.368 206.042 122.747 206.042Z" fill="#6DE0F6"/>
<path d="M122.787 205.26C122.205 205.258 121.642 205.086 121.194 204.774C120.746 204.462 120.441 204.029 120.332 203.549C120.319 203.681 120.319 203.813 120.332 203.945C120.307 204.234 120.353 204.525 120.467 204.798C120.581 205.071 120.761 205.322 120.996 205.534C121.231 205.747 121.516 205.916 121.832 206.032C122.148 206.148 122.489 206.207 122.835 206.207C123.18 206.207 123.521 206.148 123.837 206.032C124.153 205.916 124.438 205.747 124.673 205.534C124.908 205.322 125.088 205.071 125.202 204.798C125.316 204.525 125.362 204.234 125.337 203.945C125.357 203.814 125.357 203.68 125.337 203.549C125.227 204.043 124.909 204.489 124.441 204.803C123.973 205.117 123.386 205.279 122.787 205.26Z" fill="#267FE5"/>
<path d="M122.747 229.578C124.125 229.578 125.243 228.639 125.243 227.481C125.243 226.324 124.125 225.385 122.747 225.385C121.368 225.385 120.251 226.324 120.251 227.481C120.251 228.639 121.368 229.578 122.747 229.578Z" fill="#6DE0F6"/>
<path d="M122.788 228.796C122.206 228.794 121.642 228.622 121.195 228.31C120.747 227.998 120.442 227.565 120.332 227.085C120.318 227.217 120.318 227.349 120.332 227.481C120.379 228.012 120.663 228.509 121.127 228.871C121.591 229.233 122.201 229.435 122.835 229.435C123.469 229.435 124.079 229.233 124.543 228.871C125.007 228.509 125.291 228.012 125.337 227.481C125.358 227.35 125.358 227.216 125.337 227.085C125.228 227.58 124.91 228.025 124.442 228.339C123.973 228.653 123.386 228.815 122.788 228.796Z" fill="#267FE5"/>
<path opacity="0.3" d="M336.495 345.366C334.308 345.402 332.146 344.96 330.222 344.086L266.815 313.286C266.4 313.083 266.098 312.75 265.975 312.36C265.853 311.97 265.92 311.555 266.161 311.206C266.403 310.858 266.799 310.604 267.263 310.501C267.728 310.398 268.222 310.454 268.637 310.657L332.043 341.457C333.431 342.035 334.959 342.336 336.509 342.336C338.058 342.336 339.586 342.035 340.974 341.457L541.474 244.898C542.297 244.502 542.823 244.026 542.823 243.618C542.823 243.21 542.337 242.734 541.474 242.326L478.067 211.526C477.859 211.429 477.676 211.297 477.53 211.139C477.383 210.981 477.276 210.8 477.215 210.607C477.153 210.413 477.138 210.212 477.171 210.013C477.204 209.815 477.284 209.624 477.406 209.452C477.646 209.104 478.041 208.85 478.504 208.746C478.967 208.641 479.46 208.696 479.875 208.897L543.282 239.697C544.207 240.016 544.999 240.559 545.557 241.257C546.114 241.956 546.412 242.777 546.412 243.618C546.412 244.458 546.114 245.28 545.557 245.978C544.999 246.676 544.207 247.22 543.282 247.539L342.768 344.097C340.841 344.964 338.681 345.401 336.495 345.366Z" fill="#6DE0F6"/>
<path d="M336.495 344.154C334.562 344.183 332.652 343.793 330.951 343.02L267.544 312.221L267.908 311.699L331.315 342.499C332.924 343.186 334.704 343.544 336.509 343.544C338.314 343.544 340.093 343.186 341.703 342.499L542.189 245.952C542.783 245.795 543.302 245.483 543.671 245.061C544.039 244.639 544.238 244.13 544.238 243.607C544.238 243.083 544.039 242.574 543.671 242.152C543.302 241.73 542.783 241.418 542.189 241.261L478.782 210.461L479.133 209.94L542.54 240.74C543.242 240.953 543.848 241.342 544.277 241.855C544.706 242.368 544.936 242.98 544.936 243.607C544.936 244.233 544.706 244.845 544.277 245.358C543.848 245.871 543.242 246.261 542.54 246.473L342.04 343.02C340.339 343.793 338.429 344.183 336.495 344.154Z" fill="#6DE0F6"/>
<path d="M487.402 214.314C487.242 214.551 487.002 214.742 486.713 214.864C486.423 214.986 486.097 215.032 485.776 214.998C485.454 214.964 485.152 214.85 484.908 214.671C484.664 214.492 484.489 214.256 484.405 213.993C484.321 213.73 484.332 213.452 484.437 213.195C484.542 212.937 484.735 212.712 484.993 212.547C485.25 212.382 485.561 212.285 485.884 212.269C486.207 212.253 486.529 212.318 486.809 212.455C486.993 212.545 487.154 212.664 487.284 212.805C487.414 212.947 487.509 213.109 487.564 213.281C487.619 213.454 487.633 213.634 487.605 213.811C487.578 213.988 487.509 214.159 487.402 214.314Z" fill="white"/>
<path d="M495.848 218.416C495.688 218.653 495.448 218.844 495.159 218.966C494.869 219.088 494.543 219.134 494.221 219.1C493.9 219.066 493.598 218.952 493.354 218.773C493.11 218.594 492.935 218.358 492.851 218.095C492.767 217.832 492.778 217.554 492.883 217.297C492.987 217.039 493.181 216.814 493.439 216.649C493.696 216.484 494.007 216.387 494.33 216.371C494.653 216.355 494.975 216.42 495.254 216.557C495.439 216.647 495.6 216.766 495.73 216.907C495.859 217.049 495.955 217.211 496.01 217.383C496.065 217.556 496.079 217.736 496.051 217.913C496.023 218.09 495.954 218.261 495.848 218.416Z" fill="white"/>
<path d="M504.293 222.518C504.133 222.755 503.893 222.946 503.604 223.068C503.314 223.19 502.988 223.237 502.666 223.202C502.345 223.168 502.043 223.054 501.799 222.875C501.555 222.696 501.38 222.46 501.296 222.197C501.212 221.934 501.223 221.657 501.328 221.399C501.432 221.142 501.626 220.916 501.884 220.751C502.141 220.586 502.452 220.49 502.775 220.473C503.098 220.457 503.42 220.522 503.699 220.66C503.884 220.749 504.045 220.868 504.175 221.009C504.304 221.151 504.4 221.313 504.455 221.485C504.51 221.658 504.524 221.838 504.496 222.015C504.468 222.192 504.399 222.363 504.293 222.518Z" fill="white"/>
<path d="M512.738 226.62C512.578 226.857 512.338 227.048 512.049 227.17C511.759 227.292 511.433 227.339 511.111 227.304C510.79 227.27 510.488 227.156 510.244 226.977C510 226.798 509.825 226.562 509.741 226.299C509.657 226.037 509.668 225.759 509.773 225.501C509.877 225.244 510.071 225.018 510.329 224.853C510.586 224.688 510.896 224.592 511.22 224.575C511.543 224.559 511.865 224.624 512.144 224.762C512.329 224.851 512.49 224.97 512.62 225.111C512.749 225.253 512.844 225.415 512.9 225.588C512.955 225.76 512.969 225.94 512.941 226.117C512.913 226.295 512.844 226.465 512.738 226.62Z" fill="white"/>
<path d="M521.184 230.722C521.024 230.959 520.784 231.15 520.494 231.272C520.205 231.394 519.879 231.441 519.557 231.406C519.236 231.372 518.934 231.258 518.69 231.079C518.446 230.9 518.271 230.664 518.187 230.402C518.103 230.139 518.114 229.861 518.219 229.603C518.323 229.346 518.517 229.12 518.774 228.955C519.032 228.791 519.342 228.694 519.666 228.678C519.989 228.661 520.311 228.726 520.59 228.864C520.774 228.953 520.936 229.072 521.066 229.214C521.195 229.355 521.29 229.517 521.345 229.69C521.401 229.862 521.415 230.042 521.387 230.22C521.359 230.397 521.29 230.568 521.184 230.722Z" fill="white"/>
<path d="M529.629 234.847C529.469 235.084 529.229 235.275 528.939 235.397C528.65 235.519 528.323 235.565 528.002 235.531C527.681 235.497 527.379 235.383 527.135 235.204C526.891 235.025 526.716 234.789 526.632 234.526C526.548 234.263 526.559 233.986 526.664 233.728C526.768 233.471 526.962 233.245 527.219 233.08C527.477 232.915 527.787 232.819 528.111 232.802C528.434 232.786 528.756 232.851 529.035 232.989C529.219 233.078 529.381 233.197 529.511 233.338C529.64 233.48 529.735 233.642 529.79 233.814C529.846 233.987 529.86 234.167 529.832 234.344C529.804 234.521 529.735 234.692 529.629 234.847Z" fill="white"/>
<path d="M538.074 238.927C537.914 239.163 537.674 239.355 537.384 239.477C537.095 239.598 536.768 239.645 536.447 239.611C536.126 239.576 535.824 239.462 535.58 239.283C535.336 239.104 535.161 238.869 535.077 238.606C534.993 238.343 535.004 238.065 535.108 237.808C535.213 237.55 535.407 237.325 535.664 237.16C535.922 236.995 536.232 236.898 536.555 236.882C536.879 236.866 537.201 236.93 537.48 237.068C537.664 237.157 537.826 237.276 537.956 237.418C538.085 237.56 538.18 237.721 538.235 237.894C538.291 238.067 538.305 238.247 538.277 238.424C538.249 238.601 538.18 238.772 538.074 238.927Z" fill="white"/>
<path d="M544.454 244.286C544.078 244.164 543.727 243.992 543.416 243.776C543.146 243.595 542.957 243.505 542.903 243.357C542.888 243.073 542.942 242.789 543.06 242.523C543.178 242.256 543.359 242.012 543.591 241.805C543.743 241.668 543.936 241.568 544.15 241.516C544.363 241.464 544.59 241.462 544.805 241.51C545.092 241.581 545.352 241.712 545.562 241.89C545.772 242.068 545.925 242.289 546.006 242.53C546.107 242.781 546.132 243.05 546.078 243.311C546.023 243.572 545.892 243.818 545.696 244.026C545.542 244.167 545.342 244.266 545.122 244.313C544.901 244.359 544.669 244.35 544.454 244.286Z" fill="white"/>
<path d="M536.657 248.967C536.497 248.731 536.423 248.461 536.445 248.19C536.468 247.92 536.585 247.661 536.783 247.446C536.981 247.232 537.25 247.071 537.556 246.985C537.862 246.899 538.192 246.891 538.503 246.963C538.815 247.034 539.094 247.182 539.306 247.386C539.518 247.591 539.653 247.844 539.693 248.113C539.734 248.382 539.679 248.655 539.534 248.898C539.39 249.141 539.163 249.342 538.883 249.476C538.507 249.657 538.062 249.704 537.644 249.608C537.227 249.513 536.872 249.282 536.657 248.967Z" fill="white"/>
<path d="M528.198 253.046C528.068 252.89 527.978 252.713 527.934 252.526C527.889 252.339 527.892 252.147 527.941 251.96C527.99 251.774 528.085 251.599 528.219 251.446C528.354 251.292 528.525 251.164 528.722 251.069C528.918 250.974 529.137 250.915 529.362 250.895C529.588 250.874 529.816 250.894 530.032 250.952C530.248 251.01 530.447 251.105 530.617 251.232C530.787 251.358 530.923 251.513 531.018 251.686C531.188 251.997 531.213 252.35 531.089 252.676C530.965 253.002 530.7 253.277 530.347 253.447C529.994 253.617 529.578 253.671 529.18 253.596C528.783 253.522 528.433 253.326 528.198 253.046Z" fill="white"/>
<path d="M519.726 257.114C519.62 256.959 519.552 256.787 519.525 256.61C519.499 256.432 519.514 256.252 519.57 256.079C519.627 255.906 519.723 255.745 519.854 255.603C519.985 255.462 520.148 255.344 520.333 255.256C520.614 255.12 520.936 255.057 521.259 255.075C521.582 255.093 521.891 255.191 522.147 255.358C522.404 255.524 522.595 255.75 522.698 256.008C522.801 256.266 522.81 256.544 522.724 256.806C522.638 257.068 522.462 257.303 522.217 257.481C521.972 257.658 521.67 257.771 521.348 257.804C521.027 257.837 520.701 257.789 520.412 257.666C520.124 257.543 519.885 257.351 519.726 257.114Z" fill="white"/>
<path d="M511.321 261.194C511.151 260.883 511.126 260.53 511.25 260.204C511.374 259.878 511.639 259.603 511.992 259.433C512.345 259.262 512.761 259.209 513.159 259.283C513.556 259.357 513.906 259.554 514.141 259.834C514.271 259.99 514.361 260.167 514.405 260.354C514.45 260.541 514.447 260.733 514.398 260.919C514.349 261.105 514.254 261.281 514.12 261.434C513.985 261.588 513.814 261.716 513.617 261.811C513.421 261.906 513.202 261.965 512.977 261.985C512.751 262.005 512.523 261.986 512.307 261.928C512.091 261.869 511.892 261.774 511.722 261.648C511.552 261.521 511.416 261.367 511.321 261.194Z" fill="white"/>
<path d="M502.809 265.273C502.679 265.117 502.589 264.94 502.544 264.753C502.5 264.566 502.502 264.374 502.552 264.188C502.601 264.002 502.696 263.826 502.83 263.673C502.965 263.519 503.136 263.391 503.332 263.296C503.529 263.201 503.747 263.142 503.973 263.122C504.198 263.101 504.427 263.121 504.643 263.179C504.859 263.237 505.058 263.332 505.228 263.459C505.398 263.585 505.534 263.74 505.629 263.913C505.799 264.224 505.824 264.577 505.7 264.903C505.576 265.229 505.311 265.504 504.958 265.674C504.605 265.845 504.188 265.898 503.791 265.824C503.393 265.749 503.043 265.553 502.809 265.273Z" fill="white"/>
<path d="M494.337 269.341C494.18 269.107 494.11 268.84 494.134 268.573C494.158 268.305 494.276 268.05 494.472 267.839C494.669 267.628 494.935 267.47 495.238 267.385C495.541 267.301 495.867 267.293 496.174 267.364C496.482 267.434 496.758 267.58 496.968 267.782C497.178 267.984 497.312 268.233 497.354 268.499C497.395 268.765 497.342 269.035 497.201 269.275C497.061 269.516 496.838 269.716 496.563 269.851C496.377 269.942 496.172 270 495.959 270.024C495.746 270.047 495.53 270.035 495.322 269.988C495.115 269.94 494.922 269.859 494.752 269.748C494.583 269.637 494.442 269.498 494.337 269.341Z" fill="white"/>
<path d="M485.878 273.375C485.716 273.14 485.641 272.869 485.663 272.598C485.684 272.327 485.802 272.067 485.999 271.852C486.197 271.636 486.467 271.475 486.774 271.389C487.081 271.303 487.411 271.295 487.724 271.367C488.036 271.439 488.315 271.588 488.527 271.793C488.739 271.999 488.873 272.253 488.912 272.523C488.951 272.793 488.894 273.066 488.748 273.309C488.602 273.552 488.373 273.752 488.091 273.885C487.906 273.974 487.701 274.032 487.49 274.054C487.278 274.077 487.064 274.064 486.858 274.016C486.653 273.969 486.46 273.888 486.292 273.778C486.124 273.668 485.983 273.531 485.878 273.375Z" fill="white"/>
<path d="M477.419 277.5C477.255 277.265 477.178 276.995 477.197 276.724C477.217 276.452 477.332 276.191 477.528 275.975C477.724 275.758 477.993 275.596 478.299 275.508C478.606 275.42 478.937 275.411 479.25 275.481C479.562 275.552 479.843 275.699 480.056 275.904C480.269 276.109 480.405 276.363 480.446 276.632C480.487 276.902 480.431 277.176 480.286 277.42C480.141 277.663 479.913 277.864 479.632 277.999C479.447 278.088 479.244 278.146 479.033 278.169C478.822 278.193 478.608 278.181 478.402 278.135C478.197 278.088 478.004 278.008 477.835 277.899C477.667 277.791 477.525 277.655 477.419 277.5Z" fill="white"/>
<path d="M468.947 281.568C468.791 281.334 468.721 281.067 468.745 280.8C468.769 280.532 468.887 280.277 469.083 280.066C469.279 279.855 469.546 279.697 469.849 279.612C470.151 279.528 470.477 279.52 470.785 279.591C471.093 279.661 471.369 279.807 471.579 280.009C471.789 280.211 471.923 280.46 471.964 280.726C472.006 280.992 471.953 281.262 471.812 281.502C471.671 281.743 471.449 281.943 471.173 282.078C470.988 282.169 470.782 282.227 470.57 282.251C470.357 282.274 470.14 282.262 469.933 282.215C469.726 282.167 469.532 282.086 469.363 281.975C469.194 281.864 469.052 281.725 468.947 281.568Z" fill="white"/>
<path d="M460.489 285.648C460.327 285.412 460.252 285.142 460.273 284.87C460.295 284.599 460.412 284.339 460.61 284.124C460.808 283.909 461.077 283.748 461.384 283.662C461.691 283.575 462.022 283.568 462.334 283.64C462.646 283.711 462.926 283.86 463.138 284.066C463.349 284.271 463.483 284.525 463.523 284.795C463.562 285.065 463.505 285.339 463.359 285.581C463.212 285.824 462.983 286.024 462.701 286.158C462.516 286.246 462.312 286.304 462.101 286.326C461.889 286.349 461.674 286.336 461.469 286.289C461.263 286.241 461.071 286.16 460.903 286.05C460.734 285.94 460.594 285.803 460.489 285.648Z" fill="white"/>
<path d="M452.031 289.727C451.867 289.492 451.789 289.222 451.809 288.95C451.828 288.679 451.943 288.418 452.14 288.202C452.336 287.985 452.604 287.823 452.911 287.735C453.218 287.647 453.548 287.638 453.861 287.708C454.174 287.779 454.455 287.926 454.668 288.131C454.881 288.336 455.017 288.59 455.057 288.859C455.098 289.129 455.043 289.403 454.898 289.647C454.753 289.89 454.525 290.091 454.243 290.226C454.059 290.315 453.855 290.373 453.645 290.396C453.434 290.42 453.219 290.408 453.014 290.362C452.808 290.315 452.616 290.235 452.447 290.126C452.278 290.018 452.137 289.882 452.031 289.727Z" fill="white"/>
<path d="M443.558 293.772C443.402 293.539 443.331 293.271 443.356 293.004C443.38 292.737 443.497 292.482 443.694 292.27C443.89 292.059 444.156 291.901 444.459 291.817C444.762 291.732 445.088 291.725 445.396 291.795C445.704 291.866 445.98 292.011 446.19 292.213C446.399 292.415 446.533 292.665 446.575 292.93C446.616 293.196 446.563 293.466 446.423 293.707C446.282 293.947 446.06 294.148 445.784 294.282C445.598 294.373 445.393 294.432 445.18 294.455C444.967 294.479 444.751 294.466 444.544 294.419C444.337 294.371 444.143 294.29 443.974 294.179C443.804 294.068 443.663 293.93 443.558 293.772Z" fill="white"/>
<path d="M435.099 297.875C434.937 297.639 434.863 297.369 434.884 297.097C434.906 296.826 435.023 296.566 435.221 296.351C435.419 296.136 435.688 295.975 435.995 295.888C436.302 295.802 436.633 295.795 436.945 295.867C437.257 295.939 437.537 296.087 437.748 296.293C437.96 296.498 438.094 296.752 438.133 297.022C438.173 297.292 438.115 297.566 437.969 297.808C437.823 298.051 437.594 298.251 437.312 298.385C437.127 298.473 436.923 298.531 436.711 298.553C436.5 298.576 436.285 298.563 436.079 298.516C435.874 298.468 435.682 298.387 435.513 298.277C435.345 298.167 435.204 298.03 435.099 297.875Z" fill="white"/>
<path d="M426.627 301.954C426.464 301.719 426.389 301.45 426.409 301.179C426.429 300.908 426.545 300.648 426.741 300.432C426.937 300.217 427.205 300.055 427.511 299.967C427.816 299.879 428.146 299.87 428.459 299.94C428.771 300.01 429.051 300.156 429.264 300.36C429.478 300.564 429.614 300.816 429.656 301.085C429.699 301.355 429.645 301.628 429.502 301.871C429.359 302.115 429.133 302.317 428.853 302.453C428.479 302.634 428.035 302.683 427.617 302.589C427.2 302.496 426.844 302.268 426.627 301.954Z" fill="white"/>
<path d="M418.236 306.034C418.073 305.799 417.997 305.529 418.017 305.258C418.038 304.987 418.153 304.727 418.349 304.512C418.546 304.296 418.813 304.134 419.119 304.046C419.425 303.959 419.755 303.949 420.067 304.019C420.379 304.089 420.66 304.235 420.873 304.439C421.086 304.643 421.223 304.896 421.265 305.165C421.307 305.434 421.253 305.708 421.11 305.951C420.967 306.194 420.742 306.397 420.462 306.532C420.087 306.713 419.643 306.762 419.226 306.669C418.809 306.575 418.453 306.347 418.236 306.034Z" fill="white"/>
<path d="M409.71 310.102C409.548 309.866 409.473 309.596 409.495 309.324C409.516 309.053 409.634 308.793 409.831 308.578C410.029 308.363 410.299 308.202 410.606 308.115C410.913 308.029 411.243 308.022 411.556 308.094C411.868 308.165 412.147 308.314 412.359 308.52C412.571 308.725 412.705 308.979 412.744 309.249C412.783 309.519 412.726 309.793 412.58 310.035C412.434 310.278 412.205 310.478 411.923 310.611C411.737 310.7 411.533 310.758 411.322 310.78C411.11 310.803 410.896 310.79 410.69 310.743C410.485 310.695 410.292 310.614 410.124 310.504C409.956 310.394 409.815 310.257 409.71 310.102Z" fill="white"/>
<path d="M401.236 314.17C401.106 314.014 401.016 313.837 400.971 313.65C400.927 313.463 400.93 313.27 400.979 313.084C401.028 312.898 401.123 312.723 401.257 312.569C401.392 312.416 401.563 312.288 401.759 312.193C401.956 312.098 402.174 312.038 402.4 312.018C402.626 311.998 402.854 312.018 403.07 312.076C403.286 312.134 403.485 312.229 403.655 312.356C403.825 312.482 403.961 312.637 404.056 312.81C404.226 313.121 404.251 313.474 404.127 313.8C404.003 314.125 403.738 314.4 403.385 314.571C403.032 314.741 402.616 314.794 402.218 314.72C401.821 314.646 401.47 314.45 401.236 314.17Z" fill="white"/>
<path d="M392.778 318.26C392.616 318.026 392.54 317.756 392.56 317.485C392.58 317.214 392.696 316.954 392.892 316.739C393.088 316.523 393.356 316.361 393.662 316.273C393.968 316.186 394.297 316.176 394.61 316.246C394.922 316.316 395.202 316.462 395.416 316.666C395.629 316.87 395.765 317.123 395.807 317.392C395.85 317.661 395.796 317.935 395.653 318.178C395.51 318.421 395.284 318.624 395.004 318.759C394.63 318.94 394.186 318.989 393.769 318.896C393.351 318.802 392.995 318.574 392.778 318.26Z" fill="white"/>
<path d="M384.319 322.329C384.212 322.174 384.143 322.003 384.116 321.826C384.088 321.649 384.102 321.469 384.157 321.296C384.212 321.123 384.307 320.962 384.437 320.82C384.567 320.678 384.728 320.559 384.912 320.47C385.098 320.361 385.309 320.285 385.531 320.248C385.754 320.21 385.983 320.213 386.205 320.254C386.426 320.295 386.635 320.375 386.818 320.488C387 320.601 387.153 320.744 387.266 320.91C387.379 321.075 387.45 321.258 387.474 321.448C387.498 321.637 387.474 321.829 387.405 322.01C387.336 322.192 387.223 322.359 387.072 322.502C386.922 322.644 386.738 322.759 386.531 322.839C386.346 322.927 386.142 322.985 385.931 323.007C385.719 323.03 385.505 323.017 385.299 322.97C385.093 322.922 384.901 322.841 384.733 322.731C384.565 322.621 384.424 322.484 384.319 322.329Z" fill="white"/>
<path d="M375.847 326.408C375.687 326.173 375.613 325.903 375.635 325.632C375.658 325.361 375.775 325.102 375.973 324.888C376.171 324.673 376.44 324.513 376.746 324.427C377.052 324.341 377.382 324.333 377.693 324.404C378.005 324.476 378.284 324.623 378.496 324.828C378.708 325.033 378.843 325.285 378.883 325.555C378.924 325.824 378.869 326.097 378.724 326.34C378.58 326.582 378.353 326.784 378.073 326.918C377.697 327.098 377.252 327.146 376.834 327.05C376.417 326.954 376.062 326.723 375.847 326.408Z" fill="white"/>
<path d="M367.389 330.487C367.225 330.253 367.148 329.982 367.168 329.711C367.187 329.439 367.302 329.179 367.498 328.962C367.695 328.746 367.963 328.583 368.27 328.495C368.576 328.408 368.907 328.398 369.22 328.469C369.533 328.539 369.814 328.686 370.027 328.891C370.24 329.096 370.375 329.35 370.416 329.62C370.457 329.89 370.402 330.164 370.257 330.407C370.112 330.65 369.884 330.852 369.602 330.986C369.229 331.164 368.788 331.211 368.374 331.117C367.96 331.024 367.606 330.798 367.389 330.487Z" fill="white"/>
<path d="M358.876 334.567C358.768 334.413 358.698 334.242 358.669 334.064C358.64 333.887 358.654 333.706 358.709 333.533C358.764 333.36 358.86 333.198 358.991 333.057C359.121 332.915 359.284 332.797 359.47 332.709C359.656 332.599 359.866 332.523 360.089 332.486C360.311 332.449 360.541 332.451 360.762 332.492C360.984 332.534 361.192 332.613 361.375 332.726C361.558 332.839 361.711 332.983 361.824 333.148C361.937 333.313 362.007 333.496 362.031 333.686C362.055 333.875 362.032 334.067 361.963 334.249C361.894 334.43 361.78 334.597 361.63 334.74C361.479 334.883 361.295 334.997 361.089 335.077C360.904 335.166 360.7 335.223 360.488 335.246C360.277 335.268 360.062 335.255 359.857 335.208C359.651 335.161 359.459 335.08 359.29 334.97C359.122 334.86 358.981 334.723 358.876 334.567Z" fill="white"/>
<path d="M350.458 338.635C350.243 338.32 350.187 337.945 350.3 337.595C350.414 337.244 350.689 336.946 351.065 336.765C351.25 336.676 351.454 336.619 351.665 336.597C351.877 336.574 352.091 336.587 352.297 336.634C352.503 336.682 352.695 336.763 352.863 336.873C353.031 336.983 353.172 337.12 353.277 337.275C353.408 337.431 353.498 337.608 353.542 337.795C353.586 337.982 353.584 338.175 353.535 338.361C353.485 338.547 353.391 338.722 353.256 338.876C353.122 339.029 352.951 339.157 352.754 339.252C352.557 339.347 352.339 339.407 352.114 339.427C351.888 339.447 351.66 339.427 351.444 339.369C351.228 339.311 351.028 339.216 350.859 339.089C350.689 338.963 350.552 338.808 350.458 338.635Z" fill="white"/>
<path d="M341.999 342.715C341.869 342.559 341.778 342.382 341.734 342.195C341.69 342.008 341.692 341.815 341.741 341.629C341.791 341.443 341.886 341.268 342.02 341.114C342.154 340.961 342.325 340.833 342.522 340.738C342.719 340.643 342.937 340.583 343.163 340.563C343.388 340.543 343.616 340.563 343.832 340.621C344.049 340.679 344.248 340.774 344.418 340.901C344.587 341.027 344.724 341.182 344.819 341.355C344.988 341.666 345.014 342.019 344.89 342.345C344.766 342.67 344.501 342.945 344.148 343.116C343.795 343.286 343.378 343.339 342.981 343.265C342.583 343.191 342.233 342.995 341.999 342.715Z" fill="white"/>
<path d="M332.542 343.304C332.662 342.981 332.921 342.706 333.267 342.534C333.614 342.361 334.024 342.302 334.419 342.368C334.814 342.434 335.166 342.621 335.408 342.892C335.649 343.163 335.762 343.499 335.726 343.836C335.705 344.028 335.637 344.214 335.525 344.382C335.414 344.549 335.261 344.696 335.078 344.811C334.894 344.926 334.684 345.007 334.461 345.05C334.237 345.092 334.006 345.095 333.781 345.057C333.557 345.02 333.344 344.943 333.157 344.832C332.97 344.721 332.813 344.578 332.697 344.413C332.58 344.247 332.506 344.063 332.479 343.872C332.452 343.681 332.474 343.487 332.542 343.304Z" fill="white"/>
<path d="M324.03 339.326C324.19 339.093 324.428 338.906 324.716 338.787C325.003 338.668 325.325 338.623 325.643 338.658C325.96 338.693 326.258 338.807 326.499 338.984C326.739 339.161 326.912 339.394 326.995 339.654C327.078 339.914 327.067 340.188 326.965 340.443C326.862 340.698 326.672 340.921 326.418 341.085C326.164 341.249 325.858 341.346 325.539 341.363C325.219 341.381 324.901 341.319 324.623 341.185C324.438 341.097 324.275 340.978 324.144 340.837C324.013 340.695 323.918 340.533 323.862 340.36C323.807 340.187 323.793 340.007 323.822 339.829C323.851 339.652 323.921 339.481 324.03 339.326Z" fill="white"/>
<path d="M315.585 335.224C315.745 334.991 315.984 334.804 316.271 334.685C316.558 334.566 316.88 334.521 317.198 334.556C317.515 334.591 317.813 334.705 318.054 334.882C318.294 335.059 318.467 335.292 318.55 335.552C318.633 335.812 318.622 336.086 318.52 336.341C318.417 336.596 318.227 336.819 317.973 336.983C317.719 337.147 317.413 337.243 317.094 337.261C316.774 337.279 316.456 337.217 316.178 337.083C315.993 336.995 315.83 336.876 315.699 336.735C315.568 336.593 315.473 336.431 315.417 336.258C315.362 336.085 315.349 335.905 315.377 335.727C315.406 335.55 315.477 335.379 315.585 335.224Z" fill="white"/>
<path d="M307.139 331.168C307.299 330.935 307.538 330.747 307.825 330.628C308.112 330.509 308.435 330.464 308.752 330.5C309.069 330.535 309.367 330.648 309.608 330.825C309.849 331.002 310.021 331.236 310.104 331.495C310.187 331.755 310.177 332.03 310.074 332.284C309.971 332.539 309.781 332.762 309.527 332.926C309.273 333.09 308.967 333.187 308.648 333.205C308.328 333.222 308.01 333.16 307.732 333.026C307.547 332.938 307.384 332.82 307.253 332.678C307.123 332.536 307.027 332.374 306.972 332.201C306.916 332.028 306.903 331.848 306.931 331.67C306.96 331.493 307.031 331.322 307.139 331.168Z" fill="white"/>
<path d="M298.694 327.02C298.854 326.787 299.093 326.599 299.38 326.481C299.667 326.362 299.99 326.317 300.307 326.352C300.624 326.387 300.922 326.5 301.163 326.678C301.404 326.855 301.576 327.088 301.659 327.348C301.742 327.608 301.732 327.882 301.629 328.137C301.526 328.391 301.336 328.615 301.082 328.778C300.828 328.942 300.522 329.039 300.203 329.057C299.883 329.075 299.565 329.013 299.288 328.878C299.102 328.79 298.939 328.672 298.808 328.53C298.678 328.389 298.582 328.227 298.527 328.054C298.471 327.881 298.458 327.7 298.486 327.523C298.515 327.345 298.586 327.174 298.694 327.02Z" fill="white"/>
<path d="M290.249 322.918C290.409 322.685 290.648 322.497 290.935 322.379C291.222 322.26 291.545 322.215 291.862 322.25C292.179 322.285 292.477 322.398 292.718 322.576C292.959 322.753 293.131 322.986 293.214 323.246C293.297 323.505 293.287 323.78 293.184 324.035C293.081 324.289 292.891 324.513 292.637 324.676C292.383 324.84 292.077 324.937 291.758 324.955C291.438 324.973 291.12 324.911 290.843 324.776C290.657 324.688 290.494 324.57 290.363 324.428C290.233 324.287 290.137 324.125 290.082 323.952C290.026 323.779 290.013 323.598 290.042 323.421C290.07 323.243 290.141 323.072 290.249 322.918Z" fill="white"/>
<path d="M281.803 318.816C281.963 318.583 282.202 318.395 282.489 318.276C282.776 318.157 283.099 318.113 283.416 318.148C283.734 318.183 284.031 318.296 284.272 318.473C284.513 318.651 284.686 318.884 284.769 319.144C284.852 319.403 284.841 319.678 284.738 319.932C284.635 320.187 284.445 320.41 284.191 320.574C283.937 320.738 283.631 320.835 283.312 320.853C282.993 320.871 282.674 320.808 282.397 320.674C282.211 320.586 282.048 320.468 281.917 320.326C281.787 320.185 281.691 320.023 281.636 319.85C281.581 319.677 281.567 319.496 281.596 319.319C281.624 319.141 281.695 318.97 281.803 318.816Z" fill="white"/>
<path d="M273.357 314.714C273.517 314.481 273.756 314.293 274.043 314.174C274.33 314.055 274.653 314.011 274.97 314.046C275.288 314.081 275.586 314.194 275.826 314.371C276.067 314.549 276.24 314.782 276.323 315.042C276.406 315.301 276.395 315.576 276.292 315.83C276.19 316.085 275.999 316.308 275.745 316.472C275.492 316.636 275.186 316.733 274.866 316.751C274.547 316.769 274.228 316.706 273.951 316.572C273.765 316.484 273.602 316.366 273.472 316.224C273.341 316.083 273.245 315.921 273.19 315.748C273.135 315.575 273.121 315.394 273.15 315.217C273.179 315.039 273.249 314.868 273.357 314.714Z" fill="white"/>
<path opacity="0.6" d="M229.365 357.877L83.4218 287.121C79.9412 285.432 80.3864 282.486 84.3931 280.537L381.042 136.68C385.089 134.731 391.133 134.515 394.613 136.204L540.503 206.959C543.983 208.648 543.551 211.594 539.531 213.543L242.856 357.401C238.808 359.35 232.792 359.554 229.365 357.877Z" fill="#0C0F38"/>
<path d="M542.849 181.066L535.416 184.828L394.613 116.543C391.132 114.855 385.061 115.059 381.041 117.008L89.0602 258.644L81.0737 255.641V264.774C81.152 265.356 81.408 265.912 81.8169 266.386C82.2258 266.861 82.7737 267.238 83.4076 267.483L229.364 338.205C232.845 339.893 238.916 339.678 242.936 337.729L539.584 193.815C541.837 192.681 542.971 191.31 542.903 189.984L542.849 181.066Z" fill="url(#paint11_linear_1_449)"/>
<path d="M89.0602 258.644L81.0737 255.641V264.774C81.152 265.356 81.408 265.912 81.8169 266.386C82.2258 266.861 82.7737 267.238 83.4076 267.483L83.7179 267.63C83.3075 267.19 83.0632 266.658 83.0164 266.1V256.967L91.0029 259.97L102.281 254.496C101.769 253.987 101.229 253.488 100.689 253.001L89.0602 258.644Z" fill="#D4088C"/>
<path d="M535.416 184.828L466.303 151.309L464.211 152.442L533.527 186.12L540.974 182.369V191.333C540.962 191.807 540.837 192.274 540.605 192.706C540.373 193.139 540.04 193.527 539.625 193.849C541.783 192.715 542.863 191.39 542.795 190.098V181.123L535.416 184.828Z" fill="#6DE0F6"/>
<path d="M229.365 329.162L83.4218 258.406C79.9412 256.717 80.3864 253.782 84.3931 251.833L381.042 107.931C385.089 105.993 391.133 105.778 394.613 107.466L540.503 178.211C543.983 179.899 543.551 182.845 539.531 184.794L242.856 328.686C238.808 330.635 232.792 330.85 229.365 329.162Z" fill="url(#paint12_linear_1_449)"/>
<path d="M231.335 329.162L85.4454 258.406C81.9648 256.718 82.3965 253.783 86.4167 251.833L383.065 107.931C385.14 106.977 387.448 106.438 389.811 106.356C386.778 106.174 383.746 106.72 381.069 107.931L84.3931 251.845C80.3459 253.794 79.9412 256.729 83.4218 258.417L229.365 329.162C231.475 330.066 233.844 330.458 236.205 330.295C234.501 330.23 232.836 329.842 231.335 329.162Z" fill="#D4088C"/>
<path d="M540.502 178.245L394.613 107.5C392.505 106.589 390.134 106.196 387.773 106.367C389.481 106.433 391.15 106.82 392.657 107.5L538.559 178.245C542.026 179.933 541.595 182.879 537.574 184.828L240.926 328.742C238.852 329.698 236.544 330.241 234.18 330.329C237.197 330.501 240.21 329.951 242.869 328.742L539.53 184.828C543.551 182.879 543.982 179.933 540.502 178.245Z" fill="#6DE0F6"/>
<path d="M245.958 324.81L92.3924 250.338L376.171 112.713L529.736 187.185L245.958 324.81Z" fill="url(#paint13_radial_1_449)"/>
<path d="M261.634 299.268L145.061 242.734L360.495 138.266L477.068 194.801L261.634 299.268Z" fill="url(#paint14_linear_1_449)"/>
<path d="M467.234 151.06L450.613 143.059C449.993 142.753 450.073 142.221 450.788 141.926C451.159 141.753 451.574 141.655 451.998 141.641C452.422 141.627 452.845 141.698 453.23 141.847L469.783 149.87C470.418 150.176 470.337 150.708 469.608 151.06C469.239 151.212 468.832 151.291 468.421 151.291C468.009 151.291 467.603 151.212 467.234 151.06Z" fill="url(#paint15_radial_1_449)"/>
<path opacity="0.8" d="M221.27 161.734C221.27 161.734 228.393 95.6585 243.651 103.081C258.909 110.503 251.529 148.827 267.367 156.499C282.936 164.057 274.45 47.079 297.978 58.4788C314.855 66.6717 309.459 155.513 324.528 162.822C341.445 171.026 336.602 137.563 351.59 139.025C360.197 139.898 364.717 161.689 376.912 166.539C389.108 171.389 383.307 77.2896 402.612 86.6497C422.147 96.1231 427.786 261.93 427.786 261.93L221.27 161.734Z" fill="#6EE1F8"/>
<path d="M244.353 102.458C244.356 102.999 244.167 103.528 243.811 103.979C243.454 104.43 242.947 104.782 242.352 104.99C241.757 105.198 241.103 105.253 240.471 105.148C239.839 105.043 239.258 104.783 238.803 104.4C238.347 104.017 238.037 103.53 237.912 102.999C237.787 102.468 237.853 101.918 238.1 101.419C238.348 100.919 238.767 100.493 239.304 100.194C239.84 99.8943 240.471 99.7358 241.115 99.738C241.973 99.741 242.794 100.028 243.401 100.538C244.007 101.047 244.349 101.737 244.353 102.458Z" fill="white"/>
<path d="M298.168 57.6969C298.171 58.2375 297.982 58.7666 297.627 59.2172C297.271 59.6678 296.764 60.0196 296.17 60.228C295.577 60.4365 294.922 60.4922 294.291 60.3881C293.659 60.284 293.079 60.0248 292.623 59.6433C292.167 59.2618 291.856 58.7752 291.729 58.2452C291.602 57.7151 291.666 57.1654 291.912 56.6658C292.157 56.1661 292.574 55.7389 293.109 55.4383C293.644 55.1377 294.273 54.9773 294.917 54.9772C295.777 54.9772 296.602 55.2634 297.211 55.7731C297.82 56.2828 298.164 56.9746 298.168 57.6969Z" fill="white"/>
<path d="M354.424 138.867C354.424 139.407 354.233 139.936 353.875 140.385C353.518 140.834 353.009 141.185 352.414 141.391C351.819 141.597 351.165 141.651 350.534 141.544C349.903 141.438 349.323 141.177 348.869 140.794C348.415 140.411 348.107 139.923 347.983 139.393C347.859 138.862 347.925 138.313 348.173 137.814C348.421 137.315 348.84 136.889 349.377 136.591C349.913 136.292 350.543 136.134 351.187 136.136C351.613 136.136 352.035 136.206 352.429 136.344C352.822 136.481 353.18 136.683 353.481 136.936C353.782 137.19 354.02 137.491 354.182 137.822C354.344 138.154 354.426 138.509 354.424 138.867Z" fill="white"/>
<path d="M403.396 85.7658C403.396 86.3037 403.206 86.8295 402.85 87.2767C402.494 87.724 401.989 88.0725 401.397 88.2784C400.805 88.4842 400.154 88.5381 399.526 88.4331C398.898 88.3282 398.321 88.0692 397.868 87.6888C397.416 87.3085 397.107 86.8239 396.982 86.2963C396.857 85.7688 396.921 85.222 397.167 84.725C397.412 84.2281 397.827 83.8033 398.359 83.5045C398.891 83.2056 399.517 83.0461 400.158 83.0461C400.584 83.0446 401.005 83.114 401.399 83.2501C401.793 83.3862 402.15 83.5865 402.451 83.8394C402.752 84.0922 402.991 84.3926 403.153 84.7232C403.315 85.0539 403.397 85.4082 403.396 85.7658Z" fill="white"/>
<path opacity="0.8" d="M173.931 181.372C173.931 181.372 179.246 115.727 190.632 121.314C202.019 126.9 196.514 165.293 208.332 171.015C220.15 176.738 213.621 75.7372 231.172 84.2474C243.772 90.3666 239.752 124.135 250.99 129.575C263.617 135.705 261.432 118.911 271.226 123.648C281.02 128.385 281.02 149.711 290.113 153.179C299.206 156.646 294.889 80.134 309.284 87.1257C323.678 94.1174 328.076 256.23 328.076 256.23L173.931 181.372Z" fill="#D4088C"/>
<path d="M192.939 120.985C192.942 121.526 192.753 122.056 192.397 122.507C192.04 122.957 191.533 123.309 190.938 123.517C190.344 123.725 189.689 123.78 189.057 123.675C188.425 123.57 187.844 123.31 187.389 122.927C186.933 122.545 186.623 122.057 186.498 121.526C186.373 120.996 186.439 120.445 186.687 119.946C186.934 119.447 187.353 119.02 187.89 118.721C188.427 118.422 189.057 118.263 189.701 118.265C190.56 118.265 191.383 118.552 191.991 119.062C192.598 119.572 192.939 120.264 192.939 120.985Z" fill="white"/>
<path d="M232.507 83.7034C232.507 84.2413 232.318 84.7672 231.962 85.2144C231.606 85.6616 231.1 86.0102 230.509 86.2161C229.917 86.4219 229.266 86.4758 228.638 86.3708C228.01 86.2659 227.433 86.0069 226.98 85.6265C226.527 85.2462 226.219 84.7616 226.094 84.234C225.969 83.7065 226.033 83.1596 226.278 82.6627C226.523 82.1657 226.938 81.741 227.471 81.4422C228.003 81.1433 228.629 80.9838 229.27 80.9838C230.128 80.9838 230.952 81.2703 231.559 81.7804C232.166 82.2904 232.507 82.9822 232.507 83.7034Z" fill="white"/>
<path d="M271.335 122.934C271.337 123.475 271.148 124.005 270.792 124.456C270.436 124.906 269.928 125.258 269.334 125.466C268.739 125.674 268.084 125.729 267.452 125.624C266.82 125.519 266.24 125.259 265.784 124.877C265.329 124.494 265.019 124.006 264.894 123.475C264.769 122.945 264.834 122.395 265.082 121.895C265.33 121.396 265.749 120.969 266.285 120.67C266.822 120.371 267.453 120.212 268.097 120.215C268.955 120.215 269.779 120.501 270.386 121.011C270.993 121.521 271.335 122.213 271.335 122.934Z" fill="white"/>
<path d="M310.567 86.865C310.564 87.4024 310.372 87.9271 310.014 88.3728C309.657 88.8186 309.151 89.1654 308.559 89.3695C307.967 89.5736 307.316 89.6259 306.689 89.5197C306.062 89.4134 305.486 89.1535 305.035 88.7727C304.583 88.3919 304.276 87.9073 304.152 87.3801C304.029 86.8528 304.093 86.3066 304.339 85.8103C304.584 85.314 304.999 84.8899 305.532 84.5916C306.064 84.2933 306.689 84.134 307.329 84.134C307.755 84.134 308.177 84.2047 308.571 84.3421C308.965 84.4795 309.322 84.6809 309.623 84.9346C309.924 85.1883 310.162 85.4895 310.324 85.8208C310.486 86.152 310.568 86.5069 310.567 86.865Z" fill="white"/>
<path opacity="0.8" d="M236.582 261.262L213.243 249.952L221.405 245.986L244.73 257.307L236.582 261.262Z" fill="#6EE1F8"/>
<path opacity="0.8" d="M251.112 254.315L227.787 242.995L235.949 239.04L259.274 250.349L251.112 254.315Z" fill="#D4088C"/>
<path opacity="0.4" d="M189.702 189.599C189.523 189.599 189.352 189.539 189.225 189.433C189.099 189.327 189.028 189.183 189.028 189.033V121.042C189.028 120.891 189.099 120.747 189.225 120.641C189.352 120.535 189.523 120.475 189.702 120.475C189.881 120.475 190.053 120.535 190.179 120.641C190.306 120.747 190.377 120.891 190.377 121.042V189.033C190.373 189.182 190.301 189.324 190.175 189.43C190.049 189.536 189.88 189.596 189.702 189.599Z" fill="white"/>
<path opacity="0.4" d="M229.27 208.784C229.091 208.784 228.92 208.724 228.793 208.618C228.667 208.512 228.596 208.368 228.596 208.217V83.7034C228.596 83.5532 228.667 83.409 228.793 83.3028C228.92 83.1965 229.091 83.1368 229.27 83.1368C229.449 83.1368 229.621 83.1965 229.747 83.3028C229.874 83.409 229.945 83.5532 229.945 83.7034V208.24C229.938 208.386 229.864 208.525 229.738 208.626C229.612 208.727 229.445 208.784 229.27 208.784Z" fill="white"/>
<path opacity="0.4" d="M268.097 227.663C267.918 227.663 267.746 227.603 267.62 227.497C267.493 227.39 267.422 227.246 267.422 227.096V122.934C267.422 122.784 267.493 122.64 267.62 122.533C267.746 122.427 267.918 122.368 268.097 122.368C268.276 122.368 268.447 122.427 268.574 122.533C268.7 122.64 268.771 122.784 268.771 122.934V227.096C268.768 227.245 268.696 227.388 268.57 227.494C268.444 227.599 268.275 227.66 268.097 227.663Z" fill="white"/>
<path opacity="0.4" d="M307.328 246.564C307.149 246.564 306.977 246.504 306.851 246.398C306.724 246.292 306.653 246.148 306.653 245.998V87.103C306.653 86.9527 306.724 86.8086 306.851 86.7024C306.977 86.5961 307.149 86.5364 307.328 86.5364C307.507 86.5364 307.678 86.5961 307.805 86.7024C307.931 86.8086 308.002 86.9527 308.002 87.103V245.998C308.002 246.148 307.931 246.292 307.805 246.398C307.678 246.504 307.507 246.564 307.328 246.564Z" fill="white"/>
<path d="M141.903 149.983C141.795 149.985 141.688 149.964 141.592 149.922C141.495 149.881 141.412 149.82 141.35 149.745C141.299 149.685 141.262 149.617 141.243 149.545C141.223 149.473 141.22 149.398 141.236 149.326C141.251 149.253 141.283 149.183 141.33 149.121C141.378 149.059 141.44 149.005 141.512 148.963L189.243 120.566L228.77 83.3295C228.836 83.2694 228.915 83.2213 229.003 83.1882C229.091 83.155 229.187 83.1376 229.283 83.1368C229.378 83.1412 229.472 83.1614 229.557 83.1965C229.643 83.2315 229.719 83.2806 229.782 83.3408L268.11 122.073L306.828 86.4797L352.791 41.2771C352.909 41.163 353.075 41.092 353.254 41.0793C353.433 41.0666 353.61 41.1132 353.749 41.2091C353.816 41.257 353.872 41.3156 353.912 41.3817C353.952 41.4477 353.976 41.5199 353.982 41.5938C353.988 41.6677 353.977 41.742 353.948 41.8121C353.92 41.8823 353.875 41.947 353.816 42.0024L307.84 87.2276L268.595 123.319C268.459 123.433 268.275 123.498 268.083 123.501C267.985 123.499 267.888 123.48 267.8 123.445C267.712 123.41 267.633 123.359 267.57 123.297L229.256 84.576L190.241 121.359C190.208 121.392 190.172 121.422 190.133 121.45L142.295 149.859C142.182 149.933 142.046 149.976 141.903 149.983Z" fill="white"/>
<path opacity="0.6" d="M504.805 271.188L488.252 263.177C486.242 262.202 486.499 260.502 488.819 259.38L504.765 251.63C505.956 251.074 507.285 250.759 508.646 250.712C510.007 250.665 511.362 250.886 512.603 251.358L529.156 259.369C531.166 260.344 530.91 262.055 528.59 263.177L512.671 270.916C511.477 271.476 510.143 271.792 508.777 271.839C507.41 271.887 506.05 271.664 504.805 271.188Z" fill="#0C0F38"/>
<path d="M508.125 274.134C506.652 274.179 505.191 273.898 503.889 273.319L484.246 263.811C483.728 263.606 483.287 263.287 482.969 262.888C482.65 262.489 482.467 262.025 482.438 261.545C482.521 260.93 482.793 260.344 483.229 259.845C483.664 259.346 484.247 258.952 484.92 258.7L503.808 249.51C505.282 248.823 506.927 248.435 508.611 248.378C510.295 248.321 511.972 248.596 513.507 249.182L533.137 258.689C533.654 258.894 534.096 259.213 534.414 259.612C534.732 260.011 534.916 260.476 534.944 260.956C534.861 261.568 534.589 262.153 534.156 262.651C533.724 263.15 533.145 263.545 532.476 263.8L513.588 272.99C511.911 273.751 510.031 274.145 508.125 274.134ZM509.298 249.046C507.532 249.034 505.79 249.4 504.239 250.111L485.352 259.301C484.804 259.498 484.325 259.809 483.961 260.206C483.597 260.603 483.361 261.072 483.275 261.567C483.306 261.92 483.447 262.26 483.684 262.552C483.921 262.844 484.245 263.079 484.624 263.233L504.253 272.741C505.665 273.272 507.205 273.52 508.751 273.463C510.297 273.406 511.806 273.046 513.157 272.412L532.044 263.222C532.593 263.026 533.073 262.715 533.437 262.318C533.801 261.921 534.036 261.452 534.121 260.956C534.085 260.597 533.934 260.253 533.685 259.959C533.436 259.666 533.097 259.435 532.705 259.29L513.076 249.782C511.911 249.273 510.611 249.019 509.298 249.046Z" fill="url(#paint16_linear_1_449)"/>
<path d="M530.518 245.624H516.501L512.67 243.743C511.429 243.271 510.074 243.05 508.713 243.097C507.352 243.144 506.023 243.459 504.832 244.015L500.987 245.896H486.903V253.828C486.896 254.201 487.021 254.568 487.261 254.882C487.501 255.196 487.845 255.445 488.252 255.596L504.805 263.607C506.046 264.079 507.401 264.3 508.762 264.253C510.123 264.205 511.452 263.891 512.643 263.335L528.589 255.584C529.081 255.402 529.512 255.123 529.846 254.769C530.18 254.416 530.406 253.999 530.505 253.556L530.518 245.624Z" fill="url(#paint17_linear_1_449)"/>
<path d="M528.59 255.018L512.671 262.769C511.481 263.325 510.152 263.639 508.791 263.686C507.43 263.733 506.074 263.512 504.833 263.041L488.28 255.029C487.874 254.878 487.529 254.63 487.289 254.316C487.049 254.001 486.925 253.635 486.931 253.261V253.805C486.925 254.179 487.049 254.545 487.289 254.859C487.529 255.174 487.874 255.422 488.28 255.573L504.833 263.585C506.074 264.056 507.43 264.277 508.791 264.23C510.152 264.183 511.481 263.869 512.671 263.313L528.617 255.562C529.109 255.38 529.54 255.1 529.874 254.747C530.208 254.393 530.434 253.977 530.533 253.533V252.978C530.432 253.425 530.202 253.845 529.864 254.201C529.525 254.556 529.088 254.837 528.59 255.018Z" fill="url(#paint18_linear_1_449)"/>
<path d="M487.793 254.349V246.417H501.796L505.655 244.536C506.843 243.975 508.172 243.658 509.534 243.609C510.895 243.559 512.252 243.78 513.493 244.252L517.378 246.134H530.518V245.59H516.501L512.67 243.743C511.429 243.271 510.074 243.05 508.713 243.097C507.352 243.144 506.023 243.459 504.832 244.015L500.987 245.896H486.903V253.828C486.896 254.201 487.021 254.568 487.261 254.882C487.501 255.196 487.845 255.445 488.252 255.596L488.414 255.664C488.201 255.497 488.035 255.292 487.928 255.065C487.82 254.838 487.774 254.593 487.793 254.349Z" fill="#D4088C"/>
<path d="M504.805 255.686L488.252 247.663C486.242 246.689 486.499 244.989 488.819 243.867L504.765 236.116C505.956 235.56 507.285 235.246 508.646 235.199C510.007 235.152 511.362 235.373 512.603 235.844L529.156 243.912C531.166 244.887 530.91 246.598 528.59 247.72L512.671 255.414C511.477 255.974 510.143 256.29 508.777 256.337C507.41 256.385 506.05 256.162 504.805 255.686Z" fill="url(#paint19_linear_1_449)"/>
<path d="M529.157 243.913L512.671 235.844C511.452 235.32 510.082 235.096 508.718 235.198C509.713 235.231 510.686 235.452 511.565 235.844L528.05 243.913C530.061 244.887 529.804 246.598 527.484 247.72L511.538 255.471C510.346 256.016 509.022 256.326 507.666 256.378C509.394 256.473 511.118 256.159 512.644 255.471L528.59 247.72C530.91 246.542 531.167 244.83 529.157 243.913Z" fill="#6DE0F6"/>
<path d="M506.074 255.686L489.52 247.663C487.51 246.689 487.767 244.989 490.087 243.867L506.033 236.116C507.208 235.576 508.513 235.266 509.851 235.21C508.087 235.094 506.321 235.408 504.765 236.116L488.819 243.913C486.499 245.046 486.242 246.734 488.252 247.709L504.805 255.732C506.055 256.263 507.459 256.483 508.853 256.366C507.877 256.318 506.927 256.086 506.074 255.686Z" fill="#D4088C"/>
<path d="M516.799 249.692C514.29 250.759 511.517 251.315 508.704 251.315C505.892 251.315 503.119 250.759 500.61 249.692C496.144 247.516 496.144 244.026 500.61 241.839C503.119 240.772 505.892 240.215 508.704 240.215C511.517 240.215 514.29 240.772 516.799 241.839C521.264 244.003 521.264 247.516 516.799 249.692Z" fill="#6DE0F6"/>
<path d="M500.61 243.913C503.119 242.845 505.892 242.289 508.705 242.289C511.517 242.289 514.29 242.845 516.799 243.913C518.236 244.525 519.359 245.556 519.956 246.813C520.63 245.068 519.578 243.199 516.799 241.85C514.29 240.783 511.517 240.227 508.705 240.227C505.892 240.227 503.119 240.783 500.61 241.85C497.831 243.199 496.792 245.068 497.467 246.813C498.057 245.556 499.176 244.524 500.61 243.913Z" fill="#267FE5"/>
<path opacity="0.6" d="M440.684 303.087L424.131 295.076C422.121 294.101 422.377 292.39 424.698 291.268L440.644 283.574C441.834 283.018 443.163 282.704 444.524 282.657C445.885 282.609 447.241 282.83 448.482 283.302L465.035 291.325C467.045 292.299 466.789 293.999 464.468 295.121L448.522 302.838C447.33 303.39 445.999 303.7 444.638 303.744C443.277 303.787 441.923 303.562 440.684 303.087Z" fill="#0C0F38"/>
<path d="M443.989 306.045C442.518 306.077 441.06 305.797 439.753 305.229L420.124 295.71C419.603 295.509 419.159 295.19 418.841 294.79C418.522 294.391 418.34 293.925 418.316 293.444C418.4 292.831 418.671 292.247 419.104 291.748C419.537 291.25 420.116 290.854 420.785 290.6L439.672 281.409C441.145 280.726 442.788 280.341 444.47 280.286C446.152 280.231 447.826 280.507 449.358 281.092L469.001 290.6C469.518 290.804 469.96 291.123 470.278 291.523C470.597 291.922 470.78 292.386 470.809 292.866C470.726 293.481 470.454 294.067 470.018 294.566C469.583 295.065 468.999 295.459 468.326 295.71L449.439 304.9C447.768 305.666 445.892 306.06 443.989 306.045ZM445.163 280.956C443.396 280.946 441.655 281.312 440.104 282.021L421.216 291.211C420.667 291.407 420.188 291.719 419.824 292.116C419.46 292.513 419.224 292.982 419.139 293.478C419.175 293.837 419.326 294.181 419.575 294.474C419.824 294.767 420.163 294.998 420.555 295.144L440.184 304.651C441.594 305.183 443.131 305.431 444.674 305.376C446.218 305.321 447.725 304.964 449.075 304.334L467.962 295.144C468.51 294.947 468.989 294.635 469.353 294.238C469.717 293.842 469.953 293.373 470.04 292.877C470.008 292.525 469.867 292.185 469.63 291.893C469.394 291.6 469.069 291.365 468.69 291.211L449.061 281.704C447.877 281.183 446.553 280.925 445.217 280.956H445.163Z" fill="url(#paint20_linear_1_449)"/>
<path d="M466.383 277.534H452.367L448.481 275.642C447.24 275.17 445.885 274.949 444.524 274.996C443.163 275.043 441.834 275.358 440.643 275.914L436.785 277.795H422.781V285.727C422.775 286.1 422.9 286.467 423.139 286.781C423.379 287.095 423.724 287.344 424.13 287.495L440.684 295.518C441.925 295.989 443.28 296.21 444.641 296.163C446.002 296.116 447.331 295.802 448.522 295.246L464.468 287.495C464.958 287.309 465.387 287.027 465.718 286.672C466.05 286.316 466.273 285.899 466.37 285.455L466.383 277.534Z" fill="url(#paint21_linear_1_449)"/>
<path d="M464.468 286.973L448.522 294.713C447.333 295.273 446.005 295.591 444.643 295.64C443.281 295.689 441.925 295.469 440.684 294.996L424.13 286.973C423.724 286.822 423.379 286.574 423.139 286.26C422.9 285.946 422.775 285.579 422.781 285.206V285.75C422.775 286.123 422.9 286.49 423.139 286.804C423.379 287.118 423.724 287.366 424.13 287.517L440.684 295.54C441.925 296.012 443.28 296.233 444.641 296.186C446.002 296.138 447.331 295.824 448.522 295.268L464.468 287.517C464.958 287.332 465.387 287.05 465.718 286.694C466.05 286.339 466.273 285.922 466.37 285.478V284.934C466.273 285.378 466.05 285.795 465.718 286.15C465.387 286.506 464.958 286.788 464.468 286.973Z" fill="url(#paint22_linear_1_449)"/>
<path d="M423.631 286.248V278.316H437.648L441.493 276.435C442.684 275.879 444.013 275.565 445.374 275.518C446.735 275.47 448.09 275.691 449.331 276.163L453.23 278.044H466.357V277.5H452.367L448.481 275.642C447.24 275.17 445.885 274.949 444.524 274.996C443.163 275.043 441.834 275.358 440.643 275.914L436.785 277.795H422.781V285.727C422.775 286.1 422.9 286.467 423.139 286.781C423.379 287.095 423.724 287.344 424.13 287.495L424.292 287.574C424.07 287.41 423.895 287.205 423.78 286.975C423.665 286.745 423.615 286.497 423.631 286.248Z" fill="#D4088C"/>
<path d="M440.684 287.585L424.131 279.574C422.121 278.599 422.377 276.888 424.698 275.766L440.644 268.015C441.834 267.459 443.163 267.145 444.524 267.098C445.885 267.051 447.241 267.272 448.482 267.743L465.035 275.766C467.045 276.741 466.789 278.441 464.468 279.562L448.522 287.313C447.332 287.869 446.003 288.183 444.642 288.231C443.281 288.278 441.925 288.057 440.684 287.585Z" fill="url(#paint23_linear_1_449)"/>
<path d="M465.034 275.766L448.481 267.709C447.261 267.189 445.891 266.969 444.528 267.075C445.522 267.1 446.496 267.317 447.375 267.709L463.928 275.732C465.938 276.707 465.682 278.407 463.361 279.528L447.415 287.279C446.22 287.83 444.891 288.144 443.53 288.197C445.263 288.288 446.992 287.97 448.522 287.279L464.468 279.528C466.801 278.441 467.044 276.775 465.034 275.766Z" fill="#6DE0F6"/>
<path d="M441.952 287.585L425.399 279.574C423.389 278.599 423.645 276.888 425.966 275.766L441.912 268.015C443.086 267.474 444.392 267.164 445.73 267.109C443.966 266.996 442.201 267.311 440.644 268.015L424.698 275.766C422.377 276.899 422.121 278.599 424.131 279.574L440.684 287.585C441.934 288.116 443.338 288.337 444.731 288.22C443.76 288.188 442.81 287.971 441.952 287.585Z" fill="#D4088C"/>
<path d="M452.677 281.591C450.168 282.658 447.395 283.214 444.583 283.214C441.77 283.214 438.997 282.658 436.488 281.591C432.023 279.426 432.023 275.925 436.488 273.738C438.997 272.671 441.77 272.114 444.583 272.114C447.395 272.114 450.168 272.671 452.677 273.738C457.143 275.914 457.143 279.426 452.677 281.591Z" fill="#6DE0F6"/>
<path d="M436.488 275.812C438.997 274.744 441.77 274.188 444.583 274.188C447.395 274.188 450.168 274.744 452.677 275.812C454.113 276.416 455.233 277.445 455.82 278.701C456.495 276.956 455.456 275.086 452.677 273.738C450.168 272.671 447.395 272.114 444.583 272.114C441.77 272.114 438.997 272.671 436.488 273.738C433.709 275.086 432.657 276.956 433.331 278.701C433.929 277.447 435.052 276.419 436.488 275.812Z" fill="#267FE5"/>
<path opacity="0.6" d="M376.549 334.998L359.996 326.975C357.986 326 358.242 324.3 360.563 323.167L376.509 315.428C377.699 314.872 379.028 314.557 380.389 314.51C381.75 314.463 383.106 314.684 384.347 315.156L400.9 323.167C402.91 324.142 402.654 325.841 400.333 326.975L384.387 334.714C383.199 335.275 381.87 335.592 380.508 335.641C379.147 335.691 377.791 335.47 376.549 334.998Z" fill="#0C0F38"/>
<path d="M379.867 337.967C378.395 338.005 376.936 337.724 375.631 337.151L355.989 327.643C355.472 327.438 355.031 327.118 354.713 326.719C354.395 326.32 354.211 325.857 354.181 325.377C354.263 324.763 354.536 324.179 354.971 323.682C355.407 323.185 355.99 322.792 356.663 322.544L375.55 313.354C377.024 312.667 378.669 312.279 380.354 312.222C382.038 312.165 383.715 312.44 385.25 313.025L404.879 322.533C405.397 322.737 405.838 323.056 406.157 323.456C406.475 323.855 406.658 324.319 406.687 324.799C406.603 325.412 406.332 325.996 405.899 326.495C405.466 326.993 404.887 327.389 404.218 327.643L385.331 336.833C383.652 337.591 381.773 337.98 379.867 337.967ZM381.041 312.878C379.274 312.866 377.533 313.232 375.982 313.943L357.095 323.133C356.547 323.33 356.067 323.642 355.704 324.038C355.34 324.435 355.104 324.904 355.017 325.4C355.048 325.754 355.188 326.095 355.425 326.39C355.662 326.684 355.987 326.921 356.367 327.077L375.996 336.584C377.408 337.116 378.948 337.363 380.494 337.306C382.04 337.249 383.548 336.889 384.899 336.255L403.787 327.065C404.336 326.87 404.815 326.558 405.179 326.161C405.543 325.764 405.779 325.295 405.864 324.799C405.828 324.44 405.677 324.096 405.428 323.803C405.179 323.51 404.84 323.278 404.448 323.133L384.819 313.626C383.657 313.104 382.358 312.839 381.041 312.855V312.878Z" fill="url(#paint24_linear_1_449)"/>
<path d="M402.262 309.433H388.245L384.346 307.552C383.105 307.08 381.75 306.859 380.389 306.907C379.028 306.954 377.699 307.268 376.508 307.824L372.663 309.705H358.646V317.637C358.64 318.01 358.765 318.377 359.004 318.691C359.244 319.006 359.589 319.254 359.995 319.405L376.549 327.417C377.79 327.888 379.145 328.109 380.506 328.062C381.867 328.015 383.196 327.701 384.387 327.145L400.333 319.394C400.825 319.21 401.257 318.928 401.591 318.573C401.925 318.217 402.15 317.799 402.248 317.354L402.262 309.433Z" fill="url(#paint25_linear_1_449)"/>
<path d="M400.333 318.827L384.387 326.635C383.196 327.191 381.867 327.505 380.506 327.552C379.145 327.599 377.79 327.378 376.549 326.907L359.995 318.884C359.589 318.736 359.244 318.49 359.004 318.177C358.764 317.865 358.639 317.499 358.646 317.127V317.569C358.64 317.943 358.765 318.309 359.005 318.623C359.244 318.938 359.589 319.186 359.995 319.337L376.549 327.349C377.79 327.82 379.145 328.041 380.506 327.994C381.867 327.947 383.196 327.633 384.387 327.077L400.333 319.326C400.825 319.142 401.257 318.86 401.591 318.505C401.925 318.149 402.15 317.731 402.249 317.286V316.742C402.159 317.195 401.937 317.623 401.602 317.987C401.268 318.35 400.832 318.639 400.333 318.827Z" fill="url(#paint26_linear_1_449)"/>
<path d="M359.537 318.158V310.226H373.54L377.399 308.345C378.589 307.789 379.918 307.475 381.279 307.428C382.64 307.381 383.996 307.602 385.237 308.073L389.122 309.954H402.262V309.41H388.245L384.346 307.529C383.105 307.058 381.75 306.837 380.389 306.884C379.028 306.931 377.699 307.245 376.508 307.801L372.663 309.682H358.646V317.615C358.64 317.988 358.765 318.354 359.004 318.669C359.244 318.983 359.589 319.231 359.995 319.382L360.157 319.45C359.948 319.286 359.784 319.085 359.677 318.862C359.57 318.639 359.522 318.399 359.537 318.158Z" fill="#D4088C"/>
<path d="M376.549 319.496L359.996 311.473C357.986 310.498 358.242 308.798 360.563 307.677L376.509 299.926C377.699 299.37 379.028 299.056 380.389 299.008C381.75 298.961 383.106 299.182 384.347 299.654L400.9 307.665C402.91 308.64 402.654 310.34 400.333 311.473L384.387 319.212C383.199 319.773 381.87 320.09 380.508 320.139C379.147 320.189 377.791 319.968 376.549 319.496Z" fill="url(#paint27_linear_1_449)"/>
<path d="M400.9 307.665L384.347 299.654C383.128 299.13 381.758 298.906 380.394 299.008C381.39 299.035 382.364 299.256 383.241 299.654L399.794 307.665C401.804 308.64 401.548 310.34 399.227 311.473L383.281 319.212C382.086 319.763 380.757 320.077 379.396 320.13C381.13 320.228 382.861 319.91 384.387 319.212L400.334 311.473C402.654 310.34 402.91 308.64 400.9 307.665Z" fill="#6DE0F6"/>
<path d="M377.763 319.496L361.21 311.473C359.2 310.498 359.456 308.798 361.777 307.677L377.763 299.926C378.94 299.387 380.243 299.073 381.581 299.008C379.816 298.901 378.052 299.219 376.495 299.926L360.549 307.677C358.228 308.81 357.972 310.498 359.982 311.473L376.535 319.496C377.785 320.027 379.189 320.247 380.583 320.13C379.598 320.097 378.635 319.88 377.763 319.496Z" fill="#D4088C"/>
<path d="M388.556 313.49C386.049 314.562 383.275 315.122 380.461 315.122C377.648 315.122 374.874 314.562 372.367 313.49C367.901 311.325 367.901 307.824 372.367 305.648C374.876 304.581 377.649 304.025 380.461 304.025C383.274 304.025 386.047 304.581 388.556 305.648C393.008 307.813 393.008 311.325 388.556 313.49Z" fill="#6DE0F6"/>
<path d="M372.366 307.711C374.875 306.643 377.648 306.087 380.461 306.087C383.273 306.087 386.046 306.643 388.555 307.711C389.989 308.322 391.11 309.348 391.712 310.6C392.387 308.866 391.334 306.997 388.555 305.648C386.046 304.581 383.273 304.025 380.461 304.025C377.648 304.025 374.875 304.581 372.366 305.648C369.587 306.997 368.549 308.866 369.223 310.6C369.814 309.346 370.933 308.318 372.366 307.711Z" fill="#267FE5"/>
</g>
<defs>
<linearGradient id="paint0_linear_1_449" x1="82.14" y1="222.167" x2="162.235" y2="222.167" gradientUnits="userSpaceOnUse">
<stop stop-color="#D4088C"/>
<stop offset="0.23" stop-color="#D4088C"/>
<stop offset="0.51" stop-color="#6EE1F8"/>
<stop offset="0.78" stop-color="#6EE8FC"/>
<stop offset="1" stop-color="#6EE8FC"/>
</linearGradient>
<linearGradient id="paint1_linear_1_449" x1="82.3557" y1="213.793" x2="162.005" y2="213.793" gradientUnits="userSpaceOnUse">
<stop stop-color="#A31FA9"/>
<stop offset="0.07" stop-color="#8B17A0"/>
<stop offset="0.15" stop-color="#740F98"/>
<stop offset="0.24" stop-color="#640A92"/>
<stop offset="0.34" stop-color="#5B078F"/>
<stop offset="0.48" stop-color="#58068E"/>
<stop offset="0.63" stop-color="#4D22A3"/>
<stop offset="0.94" stop-color="#3168DA"/>
<stop offset="1" stop-color="#2C75E4"/>
</linearGradient>
<linearGradient id="paint2_linear_1_449" x1="89.9539" y1="189.197" x2="111.342" y2="233.503" gradientUnits="userSpaceOnUse">
<stop stop-color="#8D139B"/>
<stop offset="0.17" stop-color="#851BA1"/>
<stop offset="0.43" stop-color="#6E33B2"/>
<stop offset="0.76" stop-color="#4958CD"/>
<stop offset="1" stop-color="#2979E4"/>
</linearGradient>
<linearGradient id="paint3_linear_1_449" x1="-2729.95" y1="8540.56" x2="1974.95" y2="8540.56" gradientUnits="userSpaceOnUse">
<stop stop-color="#A31FA9"/>
<stop offset="0.07" stop-color="#8B17A0"/>
<stop offset="0.15" stop-color="#740F98"/>
<stop offset="0.24" stop-color="#640A92"/>
<stop offset="0.34" stop-color="#5B078F"/>
<stop offset="0.48" stop-color="#58068E"/>
<stop offset="0.63" stop-color="#4D22A3"/>
<stop offset="0.94" stop-color="#3168DA"/>
<stop offset="1" stop-color="#2C75E4"/>
</linearGradient>
<linearGradient id="paint4_linear_1_449" x1="21600.5" y1="39775.2" x2="25440.4" y2="39775.2" gradientUnits="userSpaceOnUse">
<stop stop-color="#8D139B"/>
<stop offset="0.17" stop-color="#851BA1"/>
<stop offset="0.43" stop-color="#6E33B2"/>
<stop offset="0.76" stop-color="#4958CD"/>
<stop offset="1" stop-color="#2979E4"/>
</linearGradient>
<linearGradient id="paint5_linear_1_449" x1="-2729.95" y1="7713.57" x2="1974.95" y2="7713.57" gradientUnits="userSpaceOnUse">
<stop stop-color="#A31FA9"/>
<stop offset="0.07" stop-color="#8B17A0"/>
<stop offset="0.15" stop-color="#740F98"/>
<stop offset="0.24" stop-color="#640A92"/>
<stop offset="0.34" stop-color="#5B078F"/>
<stop offset="0.48" stop-color="#58068E"/>
<stop offset="0.63" stop-color="#4D22A3"/>
<stop offset="0.94" stop-color="#3168DA"/>
<stop offset="1" stop-color="#2C75E4"/>
</linearGradient>
<linearGradient id="paint6_linear_1_449" x1="19946.9" y1="38972.3" x2="23786.8" y2="38972.3" gradientUnits="userSpaceOnUse">
<stop stop-color="#8D139B"/>
<stop offset="0.17" stop-color="#851BA1"/>
<stop offset="0.43" stop-color="#6E33B2"/>
<stop offset="0.76" stop-color="#4958CD"/>
<stop offset="1" stop-color="#2979E4"/>
</linearGradient>
<linearGradient id="paint7_linear_1_449" x1="-2729.95" y1="6889.18" x2="1974.95" y2="6889.18" gradientUnits="userSpaceOnUse">
<stop stop-color="#A31FA9"/>
<stop offset="0.07" stop-color="#8B17A0"/>
<stop offset="0.15" stop-color="#740F98"/>
<stop offset="0.24" stop-color="#640A92"/>
<stop offset="0.34" stop-color="#5B078F"/>
<stop offset="0.48" stop-color="#58068E"/>
<stop offset="0.63" stop-color="#4D22A3"/>
<stop offset="0.94" stop-color="#3168DA"/>
<stop offset="1" stop-color="#2C75E4"/>
</linearGradient>
<linearGradient id="paint8_linear_1_449" x1="18292.6" y1="38123.9" x2="22132.5" y2="38123.9" gradientUnits="userSpaceOnUse">
<stop stop-color="#8D139B"/>
<stop offset="0.17" stop-color="#851BA1"/>
<stop offset="0.43" stop-color="#6E33B2"/>
<stop offset="0.76" stop-color="#4958CD"/>
<stop offset="1" stop-color="#2979E4"/>
</linearGradient>
<linearGradient id="paint9_linear_1_449" x1="-2729.95" y1="6063.74" x2="1974.95" y2="6063.74" gradientUnits="userSpaceOnUse">
<stop stop-color="#A31FA9"/>
<stop offset="0.07" stop-color="#8B17A0"/>
<stop offset="0.15" stop-color="#740F98"/>
<stop offset="0.24" stop-color="#640A92"/>
<stop offset="0.34" stop-color="#5B078F"/>
<stop offset="0.48" stop-color="#58068E"/>
<stop offset="0.63" stop-color="#4D22A3"/>
<stop offset="0.94" stop-color="#3168DA"/>
<stop offset="1" stop-color="#2C75E4"/>
</linearGradient>
<linearGradient id="paint10_linear_1_449" x1="16644.7" y1="37305.5" x2="20485.9" y2="37305.5" gradientUnits="userSpaceOnUse">
<stop stop-color="#8D139B"/>
<stop offset="0.17" stop-color="#851BA1"/>
<stop offset="0.43" stop-color="#6E33B2"/>
<stop offset="0.76" stop-color="#4958CD"/>
<stop offset="1" stop-color="#2979E4"/>
</linearGradient>
<linearGradient id="paint11_linear_1_449" x1="68649.3" y1="55966.8" x2="297506" y2="55966.8" gradientUnits="userSpaceOnUse">
<stop stop-color="#8D139B"/>
<stop offset="0.17" stop-color="#851BA1"/>
<stop offset="0.43" stop-color="#6E33B2"/>
<stop offset="0.76" stop-color="#4958CD"/>
<stop offset="1" stop-color="#2979E4"/>
</linearGradient>
<linearGradient id="paint12_linear_1_449" x1="-744678" y1="-91552.4" x2="-723863" y2="-48827.3" gradientUnits="userSpaceOnUse">
<stop stop-color="#8D139B"/>
<stop offset="0.17" stop-color="#851BA1"/>
<stop offset="0.43" stop-color="#6E33B2"/>
<stop offset="0.76" stop-color="#4958CD"/>
<stop offset="1" stop-color="#2979E4"/>
</linearGradient>
<radialGradient id="paint13_radial_1_449" cx="0" cy="0" r="1" gradientUnits="userSpaceOnUse" gradientTransform="translate(157.514 120.949) rotate(26.104) scale(340.448 341.556)">
<stop offset="0.01" stop-color="#2C35A2"/>
<stop offset="0.16" stop-color="#252C88"/>
<stop offset="0.4" stop-color="#1B2167"/>
<stop offset="0.62" stop-color="#15194F"/>
<stop offset="0.83" stop-color="#101540"/>
<stop offset="1" stop-color="#0F133B"/>
</radialGradient>
<linearGradient id="paint14_linear_1_449" x1="87967.8" y1="39070.2" x2="169672" y2="39070.2" gradientUnits="userSpaceOnUse">
<stop stop-color="#A31FA9"/>
<stop offset="0.07" stop-color="#8B17A0"/>
<stop offset="0.15" stop-color="#740F98"/>
<stop offset="0.24" stop-color="#640A92"/>
<stop offset="0.34" stop-color="#5B078F"/>
<stop offset="0.48" stop-color="#58068E"/>
<stop offset="0.63" stop-color="#4D22A3"/>
<stop offset="0.94" stop-color="#3168DA"/>
<stop offset="1" stop-color="#2C75E4"/>
</linearGradient>
<radialGradient id="paint15_radial_1_449" cx="0" cy="0" r="1" gradientUnits="userSpaceOnUse" gradientTransform="translate(-23664.1 -5026.45) rotate(25.7685) scale(248.09 111.515)">
<stop offset="0.01" stop-color="#2C35A2"/>
<stop offset="0.16" stop-color="#252C88"/>
<stop offset="0.4" stop-color="#1B2167"/>
<stop offset="0.62" stop-color="#15194F"/>
<stop offset="0.83" stop-color="#101540"/>
<stop offset="1" stop-color="#0F133B"/>
</radialGradient>
<linearGradient id="paint16_linear_1_449" x1="27501.6" y1="7445.65" x2="29546.1" y2="7445.65" gradientUnits="userSpaceOnUse">
<stop stop-color="#D4088C"/>
<stop offset="0.23" stop-color="#D4088C"/>
<stop offset="0.51" stop-color="#6EE1F8"/>
<stop offset="0.78" stop-color="#6EE8FC"/>
<stop offset="1" stop-color="#6EE8FC"/>
</linearGradient>
<linearGradient id="paint17_linear_1_449" x1="22942.1" y1="6013.65" x2="24660.1" y2="6013.65" gradientUnits="userSpaceOnUse">
<stop stop-color="#A31FA9"/>
<stop offset="0.07" stop-color="#8B17A0"/>
<stop offset="0.15" stop-color="#740F98"/>
<stop offset="0.24" stop-color="#640A92"/>
<stop offset="0.34" stop-color="#5B078F"/>
<stop offset="0.48" stop-color="#58068E"/>
<stop offset="0.63" stop-color="#4D22A3"/>
<stop offset="0.94" stop-color="#3168DA"/>
<stop offset="1" stop-color="#2C75E4"/>
</linearGradient>
<linearGradient id="paint18_linear_1_449" x1="22935.2" y1="3371.16" x2="24652.7" y2="3371.16" gradientUnits="userSpaceOnUse">
<stop stop-color="#D4088C"/>
<stop offset="0.23" stop-color="#D4088C"/>
<stop offset="0.51" stop-color="#6EE1F8"/>
<stop offset="0.78" stop-color="#6EE8FC"/>
<stop offset="1" stop-color="#6EE8FC"/>
</linearGradient>
<linearGradient id="paint19_linear_1_449" x1="13159.5" y1="22479.4" x2="14154.6" y2="22207.4" gradientUnits="userSpaceOnUse">
<stop stop-color="#8D139B"/>
<stop offset="0.17" stop-color="#851BA1"/>
<stop offset="0.43" stop-color="#6E33B2"/>
<stop offset="0.76" stop-color="#4958CD"/>
<stop offset="1" stop-color="#2979E4"/>
</linearGradient>
<linearGradient id="paint20_linear_1_449" x1="24935.5" y1="8203.24" x2="26979.5" y2="8203.24" gradientUnits="userSpaceOnUse">
<stop stop-color="#D4088C"/>
<stop offset="0.23" stop-color="#D4088C"/>
<stop offset="0.51" stop-color="#6EE1F8"/>
<stop offset="0.78" stop-color="#6EE8FC"/>
<stop offset="1" stop-color="#6EE8FC"/>
</linearGradient>
<linearGradient id="paint21_linear_1_449" x1="20798.6" y1="6644.84" x2="22515.7" y2="6644.84" gradientUnits="userSpaceOnUse">
<stop stop-color="#A31FA9"/>
<stop offset="0.07" stop-color="#8B17A0"/>
<stop offset="0.15" stop-color="#740F98"/>
<stop offset="0.24" stop-color="#640A92"/>
<stop offset="0.34" stop-color="#5B078F"/>
<stop offset="0.48" stop-color="#58068E"/>
<stop offset="0.63" stop-color="#4D22A3"/>
<stop offset="0.94" stop-color="#3168DA"/>
<stop offset="1" stop-color="#2C75E4"/>
</linearGradient>
<linearGradient id="paint22_linear_1_449" x1="20792.3" y1="3720.13" x2="22508.8" y2="3720.13" gradientUnits="userSpaceOnUse">
<stop stop-color="#D4088C"/>
<stop offset="0.23" stop-color="#D4088C"/>
<stop offset="0.51" stop-color="#6EE1F8"/>
<stop offset="0.78" stop-color="#6EE8FC"/>
<stop offset="1" stop-color="#6EE8FC"/>
</linearGradient>
<linearGradient id="paint23_linear_1_449" x1="11885" y1="23072" x2="12880" y2="22800.4" gradientUnits="userSpaceOnUse">
<stop stop-color="#8D139B"/>
<stop offset="0.17" stop-color="#851BA1"/>
<stop offset="0.43" stop-color="#6E33B2"/>
<stop offset="0.76" stop-color="#4958CD"/>
<stop offset="1" stop-color="#2979E4"/>
</linearGradient>
<linearGradient id="paint24_linear_1_449" x1="22381.5" y1="8956.33" x2="24426.1" y2="8956.33" gradientUnits="userSpaceOnUse">
<stop stop-color="#D4088C"/>
<stop offset="0.23" stop-color="#D4088C"/>
<stop offset="0.51" stop-color="#6EE1F8"/>
<stop offset="0.78" stop-color="#6EE8FC"/>
<stop offset="1" stop-color="#6EE8FC"/>
</linearGradient>
<linearGradient id="paint25_linear_1_449" x1="18667.3" y1="7269.42" x2="20385.3" y2="7269.42" gradientUnits="userSpaceOnUse">
<stop stop-color="#A31FA9"/>
<stop offset="0.07" stop-color="#8B17A0"/>
<stop offset="0.15" stop-color="#740F98"/>
<stop offset="0.24" stop-color="#640A92"/>
<stop offset="0.34" stop-color="#5B078F"/>
<stop offset="0.48" stop-color="#58068E"/>
<stop offset="0.63" stop-color="#4D22A3"/>
<stop offset="0.94" stop-color="#3168DA"/>
<stop offset="1" stop-color="#2C75E4"/>
</linearGradient>
<linearGradient id="paint26_linear_1_449" x1="18661.7" y1="4068.87" x2="20379.2" y2="4068.87" gradientUnits="userSpaceOnUse">
<stop stop-color="#D4088C"/>
<stop offset="0.23" stop-color="#D4088C"/>
<stop offset="0.51" stop-color="#6EE1F8"/>
<stop offset="0.78" stop-color="#6EE8FC"/>
<stop offset="1" stop-color="#6EE8FC"/>
</linearGradient>
<linearGradient id="paint27_linear_1_449" x1="10607" y1="23666.6" x2="11602" y2="23394.9" gradientUnits="userSpaceOnUse">
<stop stop-color="#8D139B"/>
<stop offset="0.17" stop-color="#851BA1"/>
<stop offset="0.43" stop-color="#6E33B2"/>
<stop offset="0.76" stop-color="#4958CD"/>
<stop offset="1" stop-color="#2979E4"/>
</linearGradient>
</defs>
</svg>
